<?xml version="1.0" encoding="UTF-8" standalone="no"?>
<!-- Created with Inkscape (http://www.inkscape.org/) -->

<svg
   xmlns:dc="http://purl.org/dc/elements/1.1/"
   xmlns:cc="http://creativecommons.org/ns#"
   xmlns:rdf="http://www.w3.org/1999/02/22-rdf-syntax-ns#"
   xmlns:svg="http://www.w3.org/2000/svg"
   xmlns="http://www.w3.org/2000/svg"
   xmlns:xlink="http://www.w3.org/1999/xlink"
   xmlns:sodipodi="http://sodipodi.sourceforge.net/DTD/sodipodi-0.dtd"
   xmlns:inkscape="http://www.inkscape.org/namespaces/inkscape"
   id="svg2"
   version="1.1"
   inkscape:version="0.48.1 r9760"
   width="9515"
   height="9295"
   sodipodi:docname="6522_polys.svg"
   style="display:inline"
   inkscape:export-filename="/home/mcmaster/document/external/pr0ntools/IC/6522/6522_polys_big_net_cycles.png"
   inkscape:export-xdpi="90"
   inkscape:export-ydpi="90">
  <sodipodi:namedview
     pagecolor="#ffffff"
     bordercolor="#666666"
     borderopacity="1"
     objecttolerance="10000"
     gridtolerance="10000"
     guidetolerance="10000"
     inkscape:pageopacity="0"
     inkscape:pageshadow="2"
     inkscape:window-width="1024"
     inkscape:window-height="697"
     id="namedview4"
     showgrid="true"
     inkscape:zoom="0.45254834"
     inkscape:cx="5093.6032"
     inkscape:cy="1203.4039"
     inkscape:window-x="0"
     inkscape:window-y="25"
     inkscape:window-maximized="1"
     inkscape:current-layer="layer1"
     inkscape:snap-global="true"
     showguides="true"
     inkscape:guide-bbox="true">
    <inkscape:grid
       empopacity="0.25098039"
       empcolor="#ff0000"
       snapvisiblegridlinesonly="false"
       enabled="true"
       visible="true"
       empspacing="5"
       id="grid4651"
       type="xygrid" />
  </sodipodi:namedview>
  <metadata
     id="metadata8">
    <rdf:RDF>
      <cc:Work
         rdf:about="">
        <dc:format>image/svg+xml</dc:format>
        <dc:type
           rdf:resource="http://purl.org/dc/dcmitype/StillImage" />
        <dc:title></dc:title>
      </cc:Work>
    </rdf:RDF>
  </metadata>
  <defs
     id="defs6">
    <inkscape:perspective
       id="perspective10"
       inkscape:persp3d-origin="0.5 : 0.33333333 : 1"
       inkscape:vp_z="1 : 0.5 : 1"
       inkscape:vp_y="0 : 1000 : 0"
       inkscape:vp_x="0 : 0.5 : 1"
       sodipodi:type="inkscape:persp3d" />
    <inkscape:perspective
       sodipodi:type="inkscape:persp3d"
       inkscape:vp_x="0 : 0.5 : 1"
       inkscape:vp_y="0 : 1000 : 0"
       inkscape:vp_z="1 : 0.5 : 1"
       inkscape:persp3d-origin="0.5 : 0.33333333 : 1"
       id="perspective2862" />
    <inkscape:perspective
       sodipodi:type="inkscape:persp3d"
       inkscape:vp_x="0 : 0.5 : 1"
       inkscape:vp_y="0 : 1000 : 0"
       inkscape:vp_z="1 : 0.5 : 1"
       inkscape:persp3d-origin="0.5 : 0.33333333 : 1"
       id="perspective2862-0" />
    <inkscape:perspective
       sodipodi:type="inkscape:persp3d"
       inkscape:vp_x="0 : 0.5 : 1"
       inkscape:vp_y="0 : 1000 : 0"
       inkscape:vp_z="1 : 0.5 : 1"
       inkscape:persp3d-origin="0.5 : 0.33333333 : 1"
       id="perspective2862-8" />
    <inkscape:perspective
       sodipodi:type="inkscape:persp3d"
       inkscape:vp_x="0 : 0.5 : 1"
       inkscape:vp_y="0 : 1000 : 0"
       inkscape:vp_z="1 : 0.5 : 1"
       inkscape:persp3d-origin="0.5 : 0.33333333 : 1"
       id="perspective2862-1" />
    <inkscape:perspective
       sodipodi:type="inkscape:persp3d"
       inkscape:vp_x="0 : 0.5 : 1"
       inkscape:vp_y="0 : 1000 : 0"
       inkscape:vp_z="1 : 0.5 : 1"
       inkscape:persp3d-origin="0.5 : 0.33333333 : 1"
       id="perspective2862-4" />
    <inkscape:perspective
       sodipodi:type="inkscape:persp3d"
       inkscape:vp_x="0 : 0.5 : 1"
       inkscape:vp_y="0 : 1000 : 0"
       inkscape:vp_z="1 : 0.5 : 1"
       inkscape:persp3d-origin="0.5 : 0.33333333 : 1"
       id="perspective2862-85" />
    <inkscape:perspective
       sodipodi:type="inkscape:persp3d"
       inkscape:vp_x="0 : 0.5 : 1"
       inkscape:vp_y="0 : 1000 : 0"
       inkscape:vp_z="1 : 0.5 : 1"
       inkscape:persp3d-origin="0.5 : 0.33333333 : 1"
       id="perspective2862-13" />
    <inkscape:perspective
       sodipodi:type="inkscape:persp3d"
       inkscape:vp_x="0 : 0.5 : 1"
       inkscape:vp_y="0 : 1000 : 0"
       inkscape:vp_z="1 : 0.5 : 1"
       inkscape:persp3d-origin="0.5 : 0.33333333 : 1"
       id="perspective2862-80" />
    <inkscape:perspective
       sodipodi:type="inkscape:persp3d"
       inkscape:vp_x="0 : 0.5 : 1"
       inkscape:vp_y="0 : 1000 : 0"
       inkscape:vp_z="1 : 0.5 : 1"
       inkscape:persp3d-origin="0.5 : 0.33333333 : 1"
       id="perspective2862-2" />
    <inkscape:perspective
       sodipodi:type="inkscape:persp3d"
       inkscape:vp_x="0 : 0.5 : 1"
       inkscape:vp_y="0 : 1000 : 0"
       inkscape:vp_z="1 : 0.5 : 1"
       inkscape:persp3d-origin="0.5 : 0.33333333 : 1"
       id="perspective2862-3" />
    <inkscape:perspective
       sodipodi:type="inkscape:persp3d"
       inkscape:vp_x="0 : 0.5 : 1"
       inkscape:vp_y="0 : 1000 : 0"
       inkscape:vp_z="1 : 0.5 : 1"
       inkscape:persp3d-origin="0.5 : 0.33333333 : 1"
       id="perspective2862-14" />
    <inkscape:perspective
       sodipodi:type="inkscape:persp3d"
       inkscape:vp_x="0 : 0.5 : 1"
       inkscape:vp_y="0 : 1000 : 0"
       inkscape:vp_z="1 : 0.5 : 1"
       inkscape:persp3d-origin="0.5 : 0.33333333 : 1"
       id="perspective2862-19" />
    <inkscape:perspective
       sodipodi:type="inkscape:persp3d"
       inkscape:vp_x="0 : 0.5 : 1"
       inkscape:vp_y="0 : 1000 : 0"
       inkscape:vp_z="1 : 0.5 : 1"
       inkscape:persp3d-origin="0.5 : 0.33333333 : 1"
       id="perspective2862-6" />
    <inkscape:perspective
       sodipodi:type="inkscape:persp3d"
       inkscape:vp_x="0 : 0.5 : 1"
       inkscape:vp_y="0 : 1000 : 0"
       inkscape:vp_z="1 : 0.5 : 1"
       inkscape:persp3d-origin="0.5 : 0.33333333 : 1"
       id="perspective2862-69" />
    <inkscape:perspective
       sodipodi:type="inkscape:persp3d"
       inkscape:vp_x="0 : 0.5 : 1"
       inkscape:vp_y="0 : 1000 : 0"
       inkscape:vp_z="1 : 0.5 : 1"
       inkscape:persp3d-origin="0.5 : 0.33333333 : 1"
       id="perspective2862-08" />
    <inkscape:perspective
       sodipodi:type="inkscape:persp3d"
       inkscape:vp_x="0 : 0.5 : 1"
       inkscape:vp_y="0 : 1000 : 0"
       inkscape:vp_z="1 : 0.5 : 1"
       inkscape:persp3d-origin="0.5 : 0.33333333 : 1"
       id="perspective3067" />
    <inkscape:perspective
       sodipodi:type="inkscape:persp3d"
       inkscape:vp_x="0 : 0.5 : 1"
       inkscape:vp_y="0 : 1000 : 0"
       inkscape:vp_z="1 : 0.5 : 1"
       inkscape:persp3d-origin="0.5 : 0.33333333 : 1"
       id="perspective3160" />
    <inkscape:perspective
       sodipodi:type="inkscape:persp3d"
       inkscape:vp_x="0 : 0.5 : 1"
       inkscape:vp_y="0 : 1000 : 0"
       inkscape:vp_z="1 : 0.5 : 1"
       inkscape:persp3d-origin="0.5 : 0.33333333 : 1"
       id="perspective3160-1" />
    <inkscape:perspective
       sodipodi:type="inkscape:persp3d"
       inkscape:vp_x="0 : 0.5 : 1"
       inkscape:vp_y="0 : 1000 : 0"
       inkscape:vp_z="1 : 0.5 : 1"
       inkscape:persp3d-origin="0.5 : 0.33333333 : 1"
       id="perspective3160-0" />
    <inkscape:perspective
       sodipodi:type="inkscape:persp3d"
       inkscape:vp_x="0 : 0.5 : 1"
       inkscape:vp_y="0 : 1000 : 0"
       inkscape:vp_z="1 : 0.5 : 1"
       inkscape:persp3d-origin="0.5 : 0.33333333 : 1"
       id="perspective3160-16" />
    <inkscape:perspective
       sodipodi:type="inkscape:persp3d"
       inkscape:vp_x="0 : 0.5 : 1"
       inkscape:vp_y="0 : 1000 : 0"
       inkscape:vp_z="1 : 0.5 : 1"
       inkscape:persp3d-origin="0.5 : 0.33333333 : 1"
       id="perspective3160-8" />
    <inkscape:perspective
       sodipodi:type="inkscape:persp3d"
       inkscape:vp_x="0 : 0.5 : 1"
       inkscape:vp_y="0 : 1000 : 0"
       inkscape:vp_z="1 : 0.5 : 1"
       inkscape:persp3d-origin="0.5 : 0.33333333 : 1"
       id="perspective3160-3" />
    <inkscape:perspective
       sodipodi:type="inkscape:persp3d"
       inkscape:vp_x="0 : 0.5 : 1"
       inkscape:vp_y="0 : 1000 : 0"
       inkscape:vp_z="1 : 0.5 : 1"
       inkscape:persp3d-origin="0.5 : 0.33333333 : 1"
       id="perspective3160-6" />
    <inkscape:perspective
       sodipodi:type="inkscape:persp3d"
       inkscape:vp_x="0 : 0.5 : 1"
       inkscape:vp_y="0 : 1000 : 0"
       inkscape:vp_z="1 : 0.5 : 1"
       inkscape:persp3d-origin="0.5 : 0.33333333 : 1"
       id="perspective3160-2" />
    <inkscape:perspective
       sodipodi:type="inkscape:persp3d"
       inkscape:vp_x="0 : 0.5 : 1"
       inkscape:vp_y="0 : 1000 : 0"
       inkscape:vp_z="1 : 0.5 : 1"
       inkscape:persp3d-origin="0.5 : 0.33333333 : 1"
       id="perspective3160-14" />
    <inkscape:perspective
       sodipodi:type="inkscape:persp3d"
       inkscape:vp_x="0 : 0.5 : 1"
       inkscape:vp_y="0 : 1000 : 0"
       inkscape:vp_z="1 : 0.5 : 1"
       inkscape:persp3d-origin="0.5 : 0.33333333 : 1"
       id="perspective3160-39" />
    <inkscape:perspective
       sodipodi:type="inkscape:persp3d"
       inkscape:vp_x="0 : 0.5 : 1"
       inkscape:vp_y="0 : 1000 : 0"
       inkscape:vp_z="1 : 0.5 : 1"
       inkscape:persp3d-origin="0.5 : 0.33333333 : 1"
       id="perspective3160-66" />
    <inkscape:perspective
       sodipodi:type="inkscape:persp3d"
       inkscape:vp_x="0 : 0.5 : 1"
       inkscape:vp_y="0 : 1000 : 0"
       inkscape:vp_z="1 : 0.5 : 1"
       inkscape:persp3d-origin="0.5 : 0.33333333 : 1"
       id="perspective3160-5" />
    <inkscape:perspective
       sodipodi:type="inkscape:persp3d"
       inkscape:vp_x="0 : 0.5 : 1"
       inkscape:vp_y="0 : 1000 : 0"
       inkscape:vp_z="1 : 0.5 : 1"
       inkscape:persp3d-origin="0.5 : 0.33333333 : 1"
       id="perspective3160-53" />
    <inkscape:perspective
       sodipodi:type="inkscape:persp3d"
       inkscape:vp_x="0 : 0.5 : 1"
       inkscape:vp_y="0 : 1000 : 0"
       inkscape:vp_z="1 : 0.5 : 1"
       inkscape:persp3d-origin="0.5 : 0.33333333 : 1"
       id="perspective3160-87" />
    <inkscape:perspective
       sodipodi:type="inkscape:persp3d"
       inkscape:vp_x="0 : 0.5 : 1"
       inkscape:vp_y="0 : 1000 : 0"
       inkscape:vp_z="1 : 0.5 : 1"
       inkscape:persp3d-origin="0.5 : 0.33333333 : 1"
       id="perspective3160-09" />
    <inkscape:perspective
       sodipodi:type="inkscape:persp3d"
       inkscape:vp_x="0 : 0.5 : 1"
       inkscape:vp_y="0 : 1000 : 0"
       inkscape:vp_z="1 : 0.5 : 1"
       inkscape:persp3d-origin="0.5 : 0.33333333 : 1"
       id="perspective3160-9" />
    <inkscape:perspective
       sodipodi:type="inkscape:persp3d"
       inkscape:vp_x="0 : 0.5 : 1"
       inkscape:vp_y="0 : 1000 : 0"
       inkscape:vp_z="1 : 0.5 : 1"
       inkscape:persp3d-origin="0.5 : 0.33333333 : 1"
       id="perspective3160-19" />
    <inkscape:perspective
       sodipodi:type="inkscape:persp3d"
       inkscape:vp_x="0 : 0.5 : 1"
       inkscape:vp_y="0 : 1000 : 0"
       inkscape:vp_z="1 : 0.5 : 1"
       inkscape:persp3d-origin="0.5 : 0.33333333 : 1"
       id="perspective3160-4" />
    <inkscape:perspective
       sodipodi:type="inkscape:persp3d"
       inkscape:vp_x="0 : 0.5 : 1"
       inkscape:vp_y="0 : 1000 : 0"
       inkscape:vp_z="1 : 0.5 : 1"
       inkscape:persp3d-origin="0.5 : 0.33333333 : 1"
       id="perspective3160-59" />
    <inkscape:perspective
       sodipodi:type="inkscape:persp3d"
       inkscape:vp_x="0 : 0.5 : 1"
       inkscape:vp_y="0 : 1000 : 0"
       inkscape:vp_z="1 : 0.5 : 1"
       inkscape:persp3d-origin="0.5 : 0.33333333 : 1"
       id="perspective3160-38" />
    <inkscape:perspective
       sodipodi:type="inkscape:persp3d"
       inkscape:vp_x="0 : 0.5 : 1"
       inkscape:vp_y="0 : 1000 : 0"
       inkscape:vp_z="1 : 0.5 : 1"
       inkscape:persp3d-origin="0.5 : 0.33333333 : 1"
       id="perspective3160-165" />
    <inkscape:perspective
       sodipodi:type="inkscape:persp3d"
       inkscape:vp_x="0 : 0.5 : 1"
       inkscape:vp_y="0 : 1000 : 0"
       inkscape:vp_z="1 : 0.5 : 1"
       inkscape:persp3d-origin="0.5 : 0.33333333 : 1"
       id="perspective3160-52" />
    <inkscape:perspective
       sodipodi:type="inkscape:persp3d"
       inkscape:vp_x="0 : 0.5 : 1"
       inkscape:vp_y="0 : 1000 : 0"
       inkscape:vp_z="1 : 0.5 : 1"
       inkscape:persp3d-origin="0.5 : 0.33333333 : 1"
       id="perspective3160-02" />
    <inkscape:perspective
       sodipodi:type="inkscape:persp3d"
       inkscape:vp_x="0 : 0.5 : 1"
       inkscape:vp_y="0 : 1000 : 0"
       inkscape:vp_z="1 : 0.5 : 1"
       inkscape:persp3d-origin="0.5 : 0.33333333 : 1"
       id="perspective3160-13" />
    <inkscape:perspective
       sodipodi:type="inkscape:persp3d"
       inkscape:vp_x="0 : 0.5 : 1"
       inkscape:vp_y="0 : 1000 : 0"
       inkscape:vp_z="1 : 0.5 : 1"
       inkscape:persp3d-origin="0.5 : 0.33333333 : 1"
       id="perspective3160-07" />
    <inkscape:perspective
       sodipodi:type="inkscape:persp3d"
       inkscape:vp_x="0 : 0.5 : 1"
       inkscape:vp_y="0 : 1000 : 0"
       inkscape:vp_z="1 : 0.5 : 1"
       inkscape:persp3d-origin="0.5 : 0.33333333 : 1"
       id="perspective3160-81" />
    <inkscape:perspective
       sodipodi:type="inkscape:persp3d"
       inkscape:vp_x="0 : 0.5 : 1"
       inkscape:vp_y="0 : 1000 : 0"
       inkscape:vp_z="1 : 0.5 : 1"
       inkscape:persp3d-origin="0.5 : 0.33333333 : 1"
       id="perspective3160-7" />
    <inkscape:perspective
       sodipodi:type="inkscape:persp3d"
       inkscape:vp_x="0 : 0.5 : 1"
       inkscape:vp_y="0 : 1000 : 0"
       inkscape:vp_z="1 : 0.5 : 1"
       inkscape:persp3d-origin="0.5 : 0.33333333 : 1"
       id="perspective3160-71" />
    <inkscape:perspective
       sodipodi:type="inkscape:persp3d"
       inkscape:vp_x="0 : 0.5 : 1"
       inkscape:vp_y="0 : 1000 : 0"
       inkscape:vp_z="1 : 0.5 : 1"
       inkscape:persp3d-origin="0.5 : 0.33333333 : 1"
       id="perspective3160-31" />
    <inkscape:perspective
       sodipodi:type="inkscape:persp3d"
       inkscape:vp_x="0 : 0.5 : 1"
       inkscape:vp_y="0 : 1000 : 0"
       inkscape:vp_z="1 : 0.5 : 1"
       inkscape:persp3d-origin="0.5 : 0.33333333 : 1"
       id="perspective3160-143" />
    <inkscape:perspective
       sodipodi:type="inkscape:persp3d"
       inkscape:vp_x="0 : 0.5 : 1"
       inkscape:vp_y="0 : 1000 : 0"
       inkscape:vp_z="1 : 0.5 : 1"
       inkscape:persp3d-origin="0.5 : 0.33333333 : 1"
       id="perspective3160-74" />
    <inkscape:perspective
       sodipodi:type="inkscape:persp3d"
       inkscape:vp_x="0 : 0.5 : 1"
       inkscape:vp_y="0 : 1000 : 0"
       inkscape:vp_z="1 : 0.5 : 1"
       inkscape:persp3d-origin="0.5 : 0.33333333 : 1"
       id="perspective3160-00" />
    <inkscape:perspective
       sodipodi:type="inkscape:persp3d"
       inkscape:vp_x="0 : 0.5 : 1"
       inkscape:vp_y="0 : 1000 : 0"
       inkscape:vp_z="1 : 0.5 : 1"
       inkscape:persp3d-origin="0.5 : 0.33333333 : 1"
       id="perspective3160-91" />
    <inkscape:perspective
       sodipodi:type="inkscape:persp3d"
       inkscape:vp_x="0 : 0.5 : 1"
       inkscape:vp_y="0 : 1000 : 0"
       inkscape:vp_z="1 : 0.5 : 1"
       inkscape:persp3d-origin="0.5 : 0.33333333 : 1"
       id="perspective3160-49" />
    <inkscape:perspective
       sodipodi:type="inkscape:persp3d"
       inkscape:vp_x="0 : 0.5 : 1"
       inkscape:vp_y="0 : 1000 : 0"
       inkscape:vp_z="1 : 0.5 : 1"
       inkscape:persp3d-origin="0.5 : 0.33333333 : 1"
       id="perspective3160-67" />
    <inkscape:perspective
       sodipodi:type="inkscape:persp3d"
       inkscape:vp_x="0 : 0.5 : 1"
       inkscape:vp_y="0 : 1000 : 0"
       inkscape:vp_z="1 : 0.5 : 1"
       inkscape:persp3d-origin="0.5 : 0.33333333 : 1"
       id="perspective3160-593" />
    <inkscape:perspective
       sodipodi:type="inkscape:persp3d"
       inkscape:vp_x="0 : 0.5 : 1"
       inkscape:vp_y="0 : 1000 : 0"
       inkscape:vp_z="1 : 0.5 : 1"
       inkscape:persp3d-origin="0.5 : 0.33333333 : 1"
       id="perspective3160-139" />
    <inkscape:perspective
       sodipodi:type="inkscape:persp3d"
       inkscape:vp_x="0 : 0.5 : 1"
       inkscape:vp_y="0 : 1000 : 0"
       inkscape:vp_z="1 : 0.5 : 1"
       inkscape:persp3d-origin="0.5 : 0.33333333 : 1"
       id="perspective3160-69" />
    <inkscape:perspective
       sodipodi:type="inkscape:persp3d"
       inkscape:vp_x="0 : 0.5 : 1"
       inkscape:vp_y="0 : 1000 : 0"
       inkscape:vp_z="1 : 0.5 : 1"
       inkscape:persp3d-origin="0.5 : 0.33333333 : 1"
       id="perspective3160-94" />
  </defs>
  <g
     inkscape:groupmode="layer"
     id="layer2"
     inkscape:label="background"
     style="display:inline"
     sodipodi:insensitive="true">
    <image
       sodipodi:insensitive="true"
       y="0"
       x="0"
       id="image12"
       height="9295"
       width="9515"
       xlink:href="/home/mcmaster/document/external/pr0ntools/IC/6522/stitch.png"
       sodipodi:absref="/home/mcmaster/document/external/pr0ntools/IC/6522/stitch.png" />
  </g>
  <g
     style="opacity:0.5;display:inline"
     inkscape:label="metal"
     id="layer1"
     inkscape:groupmode="layer">
    <path
       style="fill:#0000ff;stroke:none;opacity:1"
       d="m 6081,8786 0,-79 -68,0 0,-101 68,0 0,-79 78,0 0,-69 101,0 0,70 80,0 0,78 74,0 0,100 -74,0 0,80 z"
       id="path3164"
       inkscape:connector-curvature="0"
       sodipodi:nodetypes="ccccccccccccccccc" />
    <path
       style="fill:#0000ff;stroke:#000000;stroke-width:1px;stroke-linecap:butt;stroke-linejoin:miter;stroke-opacity:1;opacity:1"
       d="m 2327,596 257,0 0,258 -84,0 0,81 -117,0 0,-80 -58,0 0,-259 z"
       id="path6299"
       inkscape:connector-curvature="0" />
    <path
       style="fill:#0000ff;stroke:#000000;stroke-width:1.01942657999999997px;stroke-linecap:butt;stroke-linejoin:miter;stroke-opacity:1;opacity:1"
       d="m 520,945 0,23.90231 374,0 L 894,945 z"
       id="path6326"
       inkscape:connector-curvature="0" />
    <path
       style="fill:#0000ff;stroke:#000000;stroke-width:1px;stroke-linecap:butt;stroke-linejoin:miter;stroke-opacity:1;opacity:1"
       d="m 1701,916 0,-151 95,0 0,-169 359,0 0,59 -99,0 0,197 -318,0 0,65"
       id="path6328"
       inkscape:connector-curvature="0" />
    <path
       style="fill:#0000ff;stroke:#000000;stroke-width:1px;stroke-linecap:butt;stroke-linejoin:miter;stroke-opacity:1;opacity:1"
       d="m 2736,627 0,89 118,0 0,129 259,0 0,-260 -257,0 0,38"
       id="path6332"
       inkscape:connector-curvature="0" />
    <path
       style="fill:#0000ff;stroke:#000000;stroke-width:1px;stroke-linecap:butt;stroke-linejoin:miter;stroke-opacity:1;opacity:1"
       d="m 519,652 428,0 0,381 -427,0 0,-41 392,0 0,-81 -392,0 0,-25 391,0 0,-91 -391,0 0,-25 391,0 0,-90 -390,0"
       id="path6334"
       inkscape:connector-curvature="0"
       sodipodi:nodetypes="cccccccccccccccc" />
    <path
       style="fill:#0000ff;stroke:#000000;stroke-width:1px;stroke-linecap:butt;stroke-linejoin:miter;stroke-opacity:1;opacity:1"
       d="m 599,1092 0,260 261,0 0,-261 -49,0 0,-59 -62,0 0,59 -44,0 0,-65 -61,0 0,66"
       id="path6336"
       inkscape:connector-curvature="0" />
    <path
       style="fill:#0000ff;stroke:#000000;stroke-width:1px;stroke-linecap:butt;stroke-linejoin:miter;stroke-opacity:1;opacity:1"
       d="m 894,828 -374,0 0,25 375,0"
       id="path6338"
       inkscape:connector-curvature="0" />
    <path
       style="fill:#0000ff;stroke:#000000;stroke-width:1.01942657999999997px;stroke-linecap:butt;stroke-linejoin:miter;stroke-opacity:1;display:inline;opacity:1"
       d="m 519,1940 0,23.9023 374,0 0,-23.9023 z"
       id="path6326-8"
       inkscape:connector-curvature="0" />
    <path
       style="fill:#0000ff;stroke:#000000;stroke-width:1px;stroke-linecap:butt;stroke-linejoin:miter;stroke-opacity:1;display:inline;opacity:1"
       d="m 518,1647 428,0 0,381 -427,0 0,-41 392,0 0,-81 -392,0 0,-25 391,0 0,-91 -391,0 0,-25 391,0 0,-90 -390,0"
       id="path6334-6"
       inkscape:connector-curvature="0"
       sodipodi:nodetypes="cccccccccccccccc" />
    <path
       style="fill:#0000ff;stroke:#000000;stroke-width:1px;stroke-linecap:butt;stroke-linejoin:miter;stroke-opacity:1;display:inline;opacity:1"
       d="m 598,2087 0,260 261,0 0,-261 -49,0 0,-59 -62,0 0,59 -44,0 0,-65 -61,0 0,66"
       id="path6336-0"
       inkscape:connector-curvature="0" />
    <path
       style="fill:#0000ff;stroke:#000000;stroke-width:1px;stroke-linecap:butt;stroke-linejoin:miter;stroke-opacity:1;display:inline;opacity:1"
       d="m 893,1823 -374,0 0,25 375,0"
       id="path6338-8"
       inkscape:connector-curvature="0" />
    <path
       style="fill:#0000ff;stroke:#000000;stroke-width:1.01942657999999997px;stroke-linecap:butt;stroke-linejoin:miter;stroke-opacity:1;display:inline;opacity:1"
       d="m 520,2925 0,23.9023 374,0 0,-23.9023 z"
       id="path6326-4"
       inkscape:connector-curvature="0" />
    <path
       style="fill:#0000ff;stroke:#000000;stroke-width:1px;stroke-linecap:butt;stroke-linejoin:miter;stroke-opacity:1;display:inline;opacity:1"
       d="m 519,2632 428,0 0,381 -427,0 0,-41 392,0 0,-81 -392,0 0,-25 391,0 0,-91 -391,0 0,-25 391,0 0,-90 -390,0"
       id="path6334-5"
       inkscape:connector-curvature="0"
       sodipodi:nodetypes="cccccccccccccccc" />
    <path
       style="fill:#0000ff;stroke:#000000;stroke-width:1px;stroke-linecap:butt;stroke-linejoin:miter;stroke-opacity:1;display:inline;opacity:1"
       d="m 599,3072 0,260 261,0 0,-261 -49,0 0,-59 -62,0 0,59 -44,0 0,-65 -61,0 0,66"
       id="path6336-1"
       inkscape:connector-curvature="0" />
    <path
       style="fill:#0000ff;stroke:#000000;stroke-width:1px;stroke-linecap:butt;stroke-linejoin:miter;stroke-opacity:1;display:inline;opacity:1"
       d="m 894,2808 -374,0 0,25 375,0"
       id="path6338-7"
       inkscape:connector-curvature="0" />
    <path
       style="fill:#0000ff;stroke:#000000;stroke-width:1.01942657999999997px;stroke-linecap:butt;stroke-linejoin:miter;stroke-opacity:1;display:inline;opacity:1"
       d="m 519,3910.0977 0,23.9023 374,0 0,-23.9023 z"
       id="path6326-5"
       inkscape:connector-curvature="0" />
    <path
       style="fill:#0000ff;stroke:#000000;stroke-width:1px;stroke-linecap:butt;stroke-linejoin:miter;stroke-opacity:1;display:inline;opacity:1"
       d="m 518,3617.0977 428,0 0,381 -427,0 0,-41 392,0 0,-81 -392,0 0,-25 391,0 0,-91 -391,0 0,-25 391,0 0,-90 -390,0"
       id="path6334-7"
       inkscape:connector-curvature="0"
       sodipodi:nodetypes="cccccccccccccccc" />
    <path
       style="fill:#0000ff;stroke:#000000;stroke-width:1px;stroke-linecap:butt;stroke-linejoin:miter;stroke-opacity:1;display:inline;opacity:1"
       d="m 599,4058 0,260 261,0 0,-261 -49,0 0,-59 -62,0 0,59 -44,0 0,-65 -61,0 0,66"
       id="path6336-16"
       inkscape:connector-curvature="0" />
    <path
       style="fill:#0000ff;stroke:#000000;stroke-width:1px;stroke-linecap:butt;stroke-linejoin:miter;stroke-opacity:1;display:inline;opacity:1"
       d="m 893,3793.0977 -374,0 0,25 375,0"
       id="path6338-9"
       inkscape:connector-curvature="0" />
    <path
       style="fill:#0000ff;stroke:#000000;stroke-width:1.01942657999999997px;stroke-linecap:butt;stroke-linejoin:miter;stroke-opacity:1;display:inline;opacity:1"
       d="m 518,4895 0,23.9023 374,0 0,-23.9023 z"
       id="path6326-81"
       inkscape:connector-curvature="0" />
    <path
       style="fill:#0000ff;stroke:#000000;stroke-width:1px;stroke-linecap:butt;stroke-linejoin:miter;stroke-opacity:1;display:inline;opacity:1"
       d="m 517,4602 428,0 0,381 -427,0 0,-41 392,0 0,-81 -392,0 0,-25 391,0 0,-91 -391,0 0,-25 391,0 0,-90 -390,0"
       id="path6334-3"
       inkscape:connector-curvature="0"
       sodipodi:nodetypes="cccccccccccccccc" />
    <path
       style="fill:#0000ff;stroke:#000000;stroke-width:1px;stroke-linecap:butt;stroke-linejoin:miter;stroke-opacity:1;display:inline;opacity:1"
       d="m 597,5042 0,260 261,0 0,-261 -49,0 0,-59 -62,0 0,59 -44,0 0,-65 -61,0 0,66"
       id="path6336-3"
       inkscape:connector-curvature="0" />
    <path
       style="fill:#0000ff;stroke:#000000;stroke-width:1px;stroke-linecap:butt;stroke-linejoin:miter;stroke-opacity:1;display:inline;opacity:1"
       d="m 892,4778 -374,0 0,25 375,0"
       id="path6338-3"
       inkscape:connector-curvature="0" />
    <path
       style="fill:#0000ff;stroke:#000000;stroke-width:1.01942657999999997px;stroke-linecap:butt;stroke-linejoin:miter;stroke-opacity:1;display:inline;opacity:1"
       d="m 519,5880 0,23.9023 374,0 0,-23.9023 z"
       id="path6326-7"
       inkscape:connector-curvature="0" />
    <path
       style="fill:#0000ff;stroke:#000000;stroke-width:1px;stroke-linecap:butt;stroke-linejoin:miter;stroke-opacity:1;display:inline;opacity:1"
       d="m 518,5587 428,0 0,381 -427,0 0,-41 392,0 0,-81 -392,0 0,-25 391,0 0,-91 -391,0 0,-25 391,0 0,-90 -390,0"
       id="path6334-9"
       inkscape:connector-curvature="0"
       sodipodi:nodetypes="cccccccccccccccc" />
    <path
       style="fill:#0000ff;stroke:#000000;stroke-width:1px;stroke-linecap:butt;stroke-linejoin:miter;stroke-opacity:1;display:inline;opacity:1"
       d="m 598,6027 0,260 261,0 0,-261 -49,0 0,-59 -62,0 0,59 -44,0 0,-65 -61,0 0,66"
       id="path6336-8"
       inkscape:connector-curvature="0" />
    <path
       style="fill:#0000ff;stroke:#000000;stroke-width:1px;stroke-linecap:butt;stroke-linejoin:miter;stroke-opacity:1;display:inline;opacity:1"
       d="m 893,5763 -374,0 0,25 375,0"
       id="path6338-6"
       inkscape:connector-curvature="0" />
    <path
       style="fill:#0000ff;stroke:#000000;stroke-width:1.01942657999999997px;stroke-linecap:butt;stroke-linejoin:miter;stroke-opacity:1;display:inline;opacity:1"
       d="m 519,6865 0,23.9023 374,0 0,-23.9023 z"
       id="path6326-70"
       inkscape:connector-curvature="0" />
    <path
       style="fill:#0000ff;stroke:#000000;stroke-width:1px;stroke-linecap:butt;stroke-linejoin:miter;stroke-opacity:1;display:inline;opacity:1"
       d="m 518,6572 428,0 0,381 -427,0 0,-41 392,0 0,-81 -392,0 0,-25 391,0 0,-91 -391,0 0,-25 391,0 0,-90 -390,0"
       id="path6334-4"
       inkscape:connector-curvature="0"
       sodipodi:nodetypes="cccccccccccccccc" />
    <path
       style="fill:#0000ff;stroke:#000000;stroke-width:1px;stroke-linecap:butt;stroke-linejoin:miter;stroke-opacity:1;display:inline;opacity:1"
       d="m 598,7012 0,260 261,0 0,-261 -49,0 0,-59 -62,0 0,59 -44,0 0,-65 -61,0 0,66"
       id="path6336-84"
       inkscape:connector-curvature="0" />
    <path
       style="fill:#0000ff;stroke:#000000;stroke-width:1px;stroke-linecap:butt;stroke-linejoin:miter;stroke-opacity:1;display:inline;opacity:1"
       d="m 893,6748 -374,0 0,25 375,0"
       id="path6338-81"
       inkscape:connector-curvature="0" />
    <path
       style="fill:#0000ff;stroke:#000000;stroke-width:1.01942657999999997px;stroke-linecap:butt;stroke-linejoin:miter;stroke-opacity:1;display:inline;opacity:1"
       d="m 518,7850 0,23.9023 374,0 0,-23.9023 z"
       id="path6326-6"
       inkscape:connector-curvature="0" />
    <path
       style="fill:#0000ff;stroke:#000000;stroke-width:1px;stroke-linecap:butt;stroke-linejoin:miter;stroke-opacity:1;display:inline;opacity:1"
       d="m 517,7557 428,0 0,381 -427,0 0,-41 392,0 0,-81 -392,0 0,-25 391,0 0,-91 -391,0 0,-25 391,0 0,-90 -390,0"
       id="path6334-8"
       inkscape:connector-curvature="0"
       sodipodi:nodetypes="cccccccccccccccc" />
    <path
       style="fill:#0000ff;stroke:#000000;stroke-width:1px;stroke-linecap:butt;stroke-linejoin:miter;stroke-opacity:1;display:inline;opacity:1"
       d="m 597,7997 0,260 261,0 0,-261 -49,0 0,-59 -62,0 0,59 -44,0 0,-65 -61,0 0,66"
       id="path6336-5"
       inkscape:connector-curvature="0" />
    <path
       style="fill:#0000ff;stroke:#000000;stroke-width:1px;stroke-linecap:butt;stroke-linejoin:miter;stroke-opacity:1;display:inline;opacity:1"
       d="m 892,7733 -374,0 0,25 375,0"
       id="path6338-2"
       inkscape:connector-curvature="0" />
    <path
       style="fill:#0000ff;stroke:#000000;stroke-width:1px;stroke-linecap:butt;stroke-linejoin:miter;stroke-opacity:1;opacity:1"
       d="m 597,8437 0,348 258,0 0,-259 -189,0 0,-89"
       id="path7215"
       inkscape:connector-curvature="0" />
    <path
       style="fill:#0000ff;stroke:#000000;stroke-width:1px;stroke-linecap:butt;stroke-linejoin:miter;stroke-opacity:1;opacity:1"
       d="m 1384,8735 -34,0 0,24 34,0 0,31 28,0 0,-153 -26,0 0,98 z"
       id="path7227"
       inkscape:connector-curvature="0"
       sodipodi:nodetypes="cccccccccc" />
    <path
       style="fill:#0000ff;stroke:#000000;stroke-width:1px;stroke-linecap:butt;stroke-linejoin:miter;stroke-opacity:1;opacity:1"
       d="m 1428,8635 0,144 26,0 0,-143 -26,0 z"
       id="path7229"
       inkscape:connector-curvature="0" />
    <path
       style="fill:#0000ff;stroke:#000000;stroke-width:1px;stroke-linecap:butt;stroke-linejoin:miter;stroke-opacity:1;opacity:1"
       d="m 1436,8800 -76,0 0,79 77,0 0,-79 z"
       id="path7231"
       inkscape:connector-curvature="0" />
    <path
       style="fill:#0000ff;stroke:#000000;stroke-width:1px;stroke-linecap:butt;stroke-linejoin:miter;stroke-opacity:1;opacity:1"
       d="m 1127,8475 0,29 401,0 0,-41 -26,0 0,16 -340,0 0,-4 z"
       id="path7235"
       inkscape:connector-curvature="0" />
    <path
       style="fill:#0000ff;stroke:none;opacity:1"
       d="M 1055 490 L 1055 1343 L 1013 1343 L 1013 1440 L 1055 1440 L 1055 2338 L 1012 2338 L 1012 2373 L 1054 2373 L 1054 3323 L 1012 3323 L 1012 3358 L 1054 3358 L 1054 4308 L 1012 4308 L 1012 4343 L 1054 4343 L 1054 5293 L 1011 5293 L 1011 5329 L 1054 5329 L 1054 6277 L 1011 6277 L 1011 6312 L 1053 6312 L 1053 7261 L 1012 7261 L 1012 7298 L 1053 7298 L 1053 8245 L 1010 8245 L 1010 8282 L 1053 8282 L 1053 8432 L 1010 8432 L 1010 8478 L 1053 8478 L 1053 8785 L 1205 8785 L 1205 8761 L 1093 8761 L 1093 8409 L 1136 8409 L 1136 5283 C 1135.0866 3739.4313 1136.4166 2016.6445 1138 584 L 1224 584 L 1224 615 L 1601 615 L 1601 1070 L 1637 1070 L 1637 1113 L 3770 1113 L 3770 1119 L 4437 1120 L 5560 1120 L 5560 1161.9688 L 7768 1161.9688 L 7768 1263 L 7761 1263 L 7761 1942 L 7730 1942 L 7730 1971 L 7746 1971 L 7746 2019 L 7756 2019 L 7756 2091 L 7745 2091 L 7745 3364 L 7803 3364 L 7803 3531 L 7746 3531 L 7746 4349 L 7770 4349 C 7771.0207 4491.123 7771 4628.6072 7771 4764 L 7756 4764 L 7756 5132 L 7829 5132 L 7829 5198 L 7803 5198 L 7803 5484 L 7781 5484 L 7781 5566 L 7824 5566 L 7824 5799 L 7851 5799 L 7851 6451 L 7919 6451 L 7919 7760 L 5753 7760 L 5753 7954 L 5770 7954 L 5770 8014 L 5658 8014 L 5658 8046 L 5022 8046 L 5022 7971 L 4980 7971 L 4980 8045 L 4428 8045 L 4428 8051 L 4176 8051 L 4176 8061 L 3831 8061 L 3831 8008 L 3414 8008 L 3414 8039 L 3443 8039 L 3443 8033 L 3748 8033 L 3748 8093 L 3684 8093 L 3684 8146 L 3321 8146 L 3321 8141 L 3267 8141 L 3267 8146 L 3168 8146 L 3168 8141 L 3117 8141 L 3117 8146 L 2755 8146 L 2755 8092.8438 L 2692 8092.8438 L 2692 8033 L 2994 8033 L 2994 8039 L 3026 8039 L 3026 8009 L 2291 8009 L 2291 8039 L 2321 8039 L 2326 8033 L 2625 8033 L 2625 8093 L 2562 8093 L 2562 8146 L 2201 8146 L 2201 8141 L 2149 8141 L 2149 8146 L 2048 8146 L 2048 8141 L 1995 8141 L 1995 8146 L 1633 8146 L 1633 8092.75 L 1570 8092.75 L 1570 8032.8125 L 1871 8032.8125 L 1871 8039 L 1903 8039 L 1903 8008 L 1524 8008 L 1524 8239 L 1524 8245 L 3829.7812 8245 L 3829.7812 8128 L 4351 8128 L 4351 8188 L 4277 8188 L 4277 8214 L 4381 8214 L 4381 8140 L 4540 8140 L 4540 8091 L 4836 8091 L 4836 8086 L 5028 8086 L 5028 8245 L 5023 8245 L 5023 8284 L 5023 8288 L 5057.9375 8288 L 5057.9375 8140 L 5340 8140 L 5340 8156 L 5375.8438 8156 L 5375.8438 8092 L 5510 8092 L 5510 8087 L 5686 8087 L 5686 8203 L 5720 8203 L 5720 8161 L 5709 8161 L 5709 8060 L 5815 8060 L 5815 7848 L 5942 7848 L 5942 7832 L 7990 7832 L 7990 6364 L 7949 6364 L 7949 6145 L 7943 6145 L 7943 6075 L 7949 6075 L 7949 6056 L 7949 5932 L 7991 5932 L 7991 5889 L 7948 5889 L 7948 5511 L 7944 5511 L 7944 5441 L 7949 5441 L 7949 5298 L 7992 5298 L 7992 5257 L 7949 5257 L 7949 4876 L 7945 4876 L 7945 4805 L 7949 4805 L 7949 4661 L 7993 4661 L 7993 4618 L 7949 4618 L 7949 4244 L 7943.7188 4244 L 7943.7188 4172 L 7949.3125 4172 L 7949.3125 4027 L 7992 4027 L 7992 3983 L 7949.625 3983 L 7949.625 3610 L 7945 3610 L 7945 3534 L 7949 3534 L 7949 3390 L 7993 3390 L 7993 3349 L 7949 3349 L 7949 3004 L 7949 2972 L 7945 2972 L 7945 2899 L 7950 2899 L 7950 2755.6875 L 7993 2755.6875 L 7993 2713 L 7950 2713 L 7950 2339 L 7945 2339 L 7945 2263 L 7949.8438 2263 L 7949.8438 1087 L 8035 1087 L 8035 1050 L 8423 1050 L 8423 1151 L 8465 1151 L 8465 1709 L 8424 1709 L 8424 2784 L 8285 2784 L 8285 2856 L 8310 2856 L 8310 2808 L 8423 2808 L 8423 3420 L 8284 3420 L 8284 3492 L 8310 3492 L 8310 3444 L 8423 3444 L 8423 4053 L 8285 4053 L 8285 4127 L 8310 4127 L 8310 4080 L 8422.875 4080 L 8422.875 4689 L 8285 4689 L 8285 4762 L 8310 4762 L 8310 4715 L 8422 4715 L 8422 5325 L 8284 5325 L 8284 5397 L 8310 5397 L 8310 5350 L 8422 5350 L 8422 5959 L 8284 5959 L 8284 6033 L 8309 6033 L 8309 5985 L 8421 5985 L 8421 6446 L 8485 6446 L 8485 6702.0312 L 8367 6702.0312 L 8368 6806 L 8421 6806 L 8421 6975 L 8485 6975 L 8485 7230 L 8367.9375 7230 L 8367.9375 7334.9062 L 8421 7334.9062 L 8421 7504.8438 L 8484 7504.8438 L 8484 7792 L 8368 7792 L 8368 7822 L 8485 7822 L 8485 8051 L 8464 8051 L 8464 8226 L 8150 8226 L 8150 8178 L 8115 8178 L 8115 8226 L 8035 8226 L 8035 8327.0938 L 7805 8327.0938 L 7805 8210 L 7627 8210 L 7627 8264 L 7532 8264 L 7532 8327 L 7276.0312 8327 L 7276.0312 8209.875 L 7172 8209.875 L 7172 8262.7188 L 7002.7812 8262.7188 L 7002.7812 8327.1875 L 6746.7188 8327.1875 L 6746.7188 8210 L 6642 8210 L 6642 8262.9375 L 6473 8262.9375 L 6473 8327 L 6216 8327 L 6216 8210 L 6113 8210 L 6113 8245 L 6183 8245 L 6193 8245 L 6193 8358 L 6277 8358 L 6277 8378 L 6323 8378 L 6323 8357 L 6807 8357 L 6807 8378 L 6853 8378 L 6853 8357 L 7335 8357 L 7335 8378 L 7382 8378 L 7382 8357 L 7865 8357 L 7865 8378 L 7911 8378 L 7911 8357 L 8065 8357 L 8065 8255 L 8515 8255 L 8515 8156 L 8691 8156 L 8691 8346 L 8811 8346 L 8811 8330 L 8985.7188 8330 L 8985.7188 8183 L 8956 8183 L 8956 8305 L 8715 8305 L 8715 8131 L 8515 8131 L 8515 7701 L 8536 7701 L 8536 7652 L 8515.25 7652 L 8515.25 7171 L 8536 7171 L 8536 7125 L 8515 7125 L 8514 6641 L 8535 6641 L 8535 6594 L 8514 6594 L 8515 6416 L 8478 6416 L 8478 6186 L 8515 6186 L 8515 5781 L 8478 5781 L 8478 5551 L 8515 5551 L 8515 5145 L 8478 5145 L 8478 4916 L 8516 4916 L 8516 4510 L 8479 4510 L 8479 4281 L 8516 4281 L 8516 3875 L 8479 3875 L 8479 3645 L 8515 3645 L 8515 3426 L 8516 3426 L 8516 3240 L 8479 3240 L 8479 3009 L 8516.3125 3009 L 8516.3125 2147 L 8651 2147 L 8651 2359 L 8691 2359 L 8691 2169 L 8718 2169 L 8718 1989 L 8678 1989 L 8678 2101 L 8517 2101 L 8517 1807 L 8559.3125 1807 L 8559.3125 1020 L 8512 1020 L 8512 957 L 7808 957 L 7808 841 L 7746 841 L 7746 876 L 7773 876 L 7773 957 L 7683 957 L 7683 979 L 7548 979 L 7548 957 L 7448 957 L 7448 888 L 7403 888 L 7403 914 L 7279 914 L 7279 956 L 6861 956 L 6861 807 L 6914 807 L 6914 761 L 6836 761 L 6836 956 L 5775 956 L 5775 638 L 5618 638 L 5618 585 L 5358 585 L 5358 843 L 5571 843 L 5571 1042 L 5494 1042 L 5494 999 L 5434 999 L 5434 1041 L 5203 1041 L 5203 1000 L 5169 1000 L 5169 1041 L 4419 1041 L 4419 887 L 4364 887 L 4364 914 L 4242 914 L 4242 957 L 3822 957 L 3822 827 L 3875 827 L 3875 771 L 3850 771 L 3850 803 L 3798 803 L 3798 998 L 1936 998 L 1936 956 L 1896 956 L 1896 998 L 1730 998 L 1730 956 L 1683 956 L 1683 532 L 1307 532 L 1307 490 L 1055 490 z "
       id="path3106" />
    <path
       style="fill:#0000ff;stroke:none;opacity:1"
       d="m 1687,8526 0,259 353,0 0,-47 -93,0 0,-212 z"
       id="path3133"
       inkscape:connector-curvature="0" />
    <path
       style="fill:#0000ff;stroke:none;opacity:1"
       d="m 2508,8786 -354,0 0,-47 94,0 0,-212.0298 260,0 z"
       id="path3135"
       inkscape:connector-curvature="0" />
    <path
       style="fill:#0000ff;stroke:none;display:inline;opacity:1"
       d="m 2811,8527 0,259 353,0 0,-47 -93,0 0,-212 z"
       id="path3133-6"
       inkscape:connector-curvature="0" />
    <path
       style="fill:#0000ff;stroke:none;display:inline;opacity:1"
       d="m 3629,8786 -354,0 0,-47 94,0 0,-212.0298 260,0 z"
       id="path3135-8"
       inkscape:connector-curvature="0" />
    <path
       style="fill:#0000ff;stroke:none;opacity:1"
       d="m 4783,8696 0,-63 47,0 0,-37 -121,0 0,-70 -257,0 0,80 -61,0 0,-100 -35,0 0,328 -91,0 0,-275 -25,0 0,275 -93,0 0,-274 -24,0 0,274 -92,0 0,-274 -25,0 0,304 385,0 0,-159 59,0 0,81 260,0 0,-90 z"
       id="path3158"
       inkscape:connector-curvature="0"
       sodipodi:nodetypes="ccccccccccccccccccccccccccccccc" />
    <path
       style="fill:#0000ff;stroke:none;opacity:1"
       d="m 4980,8786 260,0 0,-73 53,0 0,-70 77,0 0,-41 -130,0 0,-76 -260,0 z"
       id="path3160"
       inkscape:connector-curvature="0"
       sodipodi:nodetypes="ccccccccccc" />
    <path
       style="fill:#0000ff;stroke:none;opacity:1"
       d="m 5987,8861 0,-423 418,0 0,-64 23,0 0,485 -29,0 0,-391 -379,0 0,393 z"
       id="path3162"
       inkscape:connector-curvature="0" />
    <path
       style="fill:#0000ff;stroke:none;display:inline;opacity:1"
       d="m 6610,8787 0,-79 -68,0 0,-101 68,0 0,-79 78,0 0,-69 101,0 0,70 80,0 0,78 74,0 0,100 -74,0 0,80 z"
       id="path3164-5"
       inkscape:connector-curvature="0"
       sodipodi:nodetypes="ccccccccccccccccc" />
    <path
       style="fill:#0000ff;stroke:none;display:inline;opacity:1"
       d="m 6516,8862 0,-423 418,0 0,-64 23,0 0,485 -29,0 0,-391 -379,0 0,393 z"
       id="path3162-0"
       inkscape:connector-curvature="0" />
    <path
       style="fill:#0000ff;stroke:none;display:inline;opacity:1"
       d="m 7141,8787 0,-79 -68,0 0,-101 68,0 0,-79 78,0 0,-69 101,0 0,70 80,0 0,78 74,0 0,100 -74,0 0,80 z"
       id="path3164-1"
       inkscape:connector-curvature="0"
       sodipodi:nodetypes="ccccccccccccccccc" />
    <path
       style="fill:#0000ff;stroke:none;display:inline;opacity:1"
       d="m 7047,8862 0,-423 418,0 0,-64 23,0 0,485 -29,0 0,-391 -379,0 0,393 z"
       id="path3162-5"
       inkscape:connector-curvature="0" />
    <path
       style="fill:#0000ff;stroke:none;opacity:1"
       d="m 7669,8786 0,-54 -79,0 0,-152 78,0 0,-53 80,0 0,-70 100,0 0,69 81,0 0,54 67,0 0,154 -69,0 0,52 z"
       id="path3205"
       inkscape:connector-curvature="0" />
    <path
       style="fill:#0000ff;stroke:none;opacity:1"
       d="m 7608,8860 -39,0 0,-422 422,0 0,-64 26,0 0,65 5.5606,0 0,421 -36.5606,0 0,-392 -376,0 0,392 z"
       id="path3207"
       inkscape:connector-curvature="0" />
    <path
       style="fill:#0000ff;stroke:none;opacity:1"
       d="m 8238,8861 -23,0 0,-388 -82,0 0,376 -25,0 0,-411.5956 671,0 0,422.5956 -25,0 0,-387 -80,0 0,387 -36,0 -1,-387 -386.9217,0 0,388 z"
       id="path3209"
       inkscape:connector-curvature="0"
       sodipodi:nodetypes="cccccccccccccccccc" />
    <path
       style="fill:#0000ff;stroke:none;opacity:1"
       d="m 8267,8734 -29,0 0,-154 77,0 0,-53 259,0 0,53 82,0 0,153.7231 -82,0 0,51.2769 -259,0 0,-51 z"
       id="path3211"
       inkscape:connector-curvature="0" />
    <path
       style="fill:#0000ff;stroke:none;opacity:1"
       d="m 8939,8851 0,-43 73,0 0,47 -73,0 z"
       id="path3213"
       inkscape:connector-curvature="0" />
    <path
       style="fill:#0000ff;stroke:none;opacity:1"
       d="m 8828,8665 -10,0 0,-46 73,0 0,46 z"
       id="path3215"
       inkscape:connector-curvature="0" />
    <path
       style="fill:#0000ff;stroke:none;opacity:1"
       d="m 3686,576 0,-49 46,0 0,82 -43,0 0,55 -46.5135,0 0,179.7149 -259.2867,0 0,-259.07762 302.8002,0 z"
       id="path3217"
       inkscape:connector-curvature="0" />
    <path
       style="fill:#0000ff;stroke:none;opacity:1"
       d="m 4179,905 0,-18 35,0 0,52 -375,0 0,-90 25,0 0,65.5708 315,0 z"
       id="path3219"
       inkscape:connector-curvature="0"
       sodipodi:nodetypes="cccccccccc" />
    <path
       style="fill:#0000ff;stroke:none;opacity:1"
       d="m 3964,872 117,0 0,24 -125,0 0,-24 z"
       id="path3221"
       inkscape:connector-curvature="0" />
    <path
       style="fill:#0000ff;stroke:none;opacity:1"
       d="m 3893,888 0,-149 242,0 0,24.8899 -218,0 0,109.1101 22,0 0,23 -46,0 z"
       id="path3223"
       inkscape:connector-curvature="0" />
    <path
       style="fill:#0000ff;stroke:none;opacity:1"
       d="m 3935,851 0,-64 25,0 0,42 408,0 0,36 -41,0 0,-12 -392,0 z"
       id="path3225"
       inkscape:connector-curvature="0" />
    <path
       style="fill:#0000ff;stroke:none;opacity:1"
       d="m 3999,808 0,-26 289,0 0,30 -289,0 z"
       id="path3227"
       inkscape:connector-curvature="0" />
    <path
       style="fill:#0000ff;stroke:none;opacity:1"
       d="m 4522,931 0,-331 -184,0 0,-24 184,0 0,-59 257.933,0 0,121 59.495,0 0,-53 257.572,0 0,259 -257,0 0,-53 -60,0 0,148 -25.3184,0 0,-398 -91.6816,0 0,393 -24.2734,0 0,-393 -91.7492,0 0,393 -24.9774,0 z"
       id="path3229"
       inkscape:connector-curvature="0" />
    <path
       style="fill:#0000ff;stroke:none;opacity:1"
       d="m 5238,1020 0,-22 153,0 0,-42 162,0 0,66 -30,0 0,-41 -109,0 0,43.2514 -176,0 z"
       id="path3231"
       inkscape:connector-curvature="0" />
    <path
       style="fill:#0000ff;stroke:none;opacity:1"
       d="m 4439,1021 0,-22 470,0 0,-42 323.1252,0 0,-79 23.0207,0 0,103.0193 -323.1459,0 0,42.915 -493,0 z"
       id="path3233"
       inkscape:connector-curvature="0" />
    <path
       style="fill:#0000ff;stroke:none;opacity:1"
       d="m 5883,923 0,-19 338,0 0,-402 25,0 0,426 -363,0 z"
       id="path3235"
       inkscape:connector-curvature="0" />
    <path
       style="fill:#0000ff;stroke:none;opacity:1"
       d="m 5928,843 -40,0 0,-257 258,0 0,52 87,0 0,163 -88,0 0,43 -52,0 0,73 -152,0 0,-74 z"
       id="path3237"
       inkscape:connector-curvature="0" />
    <path
       style="fill:#0000ff;stroke:none;opacity:1"
       d="m 6418,837 0,-251 259.2929,0 0,52 55.7071,0 0,152 -58,0 0,55 -53,0 0,67 -125,0 0,-68 -79,0 z"
       id="path3260"
       inkscape:connector-curvature="0" />
    <path
       style="fill:#0000ff;stroke:none;opacity:1"
       d="m 6397,924 0,-26 334,0 0,-392 29,0 0,422.00981 -363,0 z"
       id="path3262"
       inkscape:connector-curvature="0" />
    <path
       style="fill:#0000ff;stroke:none;opacity:1"
       d="m 1736,8098 287,0 0,-10 30,0 0,35 -317,0 c 0,-8.3333 0,-16.6667 0,-25 z"
       id="path3294"
       inkscape:connector-curvature="0"
       sodipodi:nodetypes="ccccccc" />
    <path
       style="fill:#0000ff;stroke:none;opacity:1"
       d="m 1999,8056 -184,0 -6,-5.6123 -222,0 0,24.6123 191,0 5,5 216,0 c 0,-8 0,-16 0,-24 z"
       id="path3296"
       inkscape:connector-curvature="0"
       sodipodi:nodetypes="ccccccccc" />
    <path
       style="fill:#0000ff;stroke:none;opacity:1"
       d="m 1922,8012 0,-25 124,0 0,25 c -41.3333,0 -82.6667,0 -124,0 z"
       id="path3298"
       inkscape:connector-curvature="0"
       sodipodi:nodetypes="ccccc" />
    <path
       style="fill:#0000ff;stroke:none;opacity:1"
       d="m 1856,7969 0,22 -305,0 0,-25 280,0 0,-27 231,0 0,30 c -68.6667,0 -137.3333,0 -206,0 z"
       id="path3300"
       inkscape:connector-curvature="0"
       sodipodi:nodetypes="ccccccccc" />
    <path
       style="fill:#0000ff;stroke:none;opacity:1"
       d="m 2143,8123 0,-29 26,0 0,4 290,0 0,25 c -105.3333,0 -210.6667,0 -316,0 z"
       id="path3320"
       inkscape:connector-curvature="0"
       sodipodi:nodetypes="ccccccc" />
    <path
       style="fill:#0000ff;stroke:none;opacity:1"
       d="m 2197,8056 185,0 5,-5 220,0 0,23.6043 -190,0.3957 -6,5.0605 -214,0 c 0,-8.0202 0,-16.0403 0,-24.0605 z"
       id="path3322"
       inkscape:connector-curvature="0"
       sodipodi:nodetypes="ccccccccc" />
    <path
       style="fill:#0000ff;stroke:none;opacity:1"
       d="m 2710,8051 220,0 4,4 187,1 0,24 -214,0 -7,-4 -190,-1 c 0,-7.6667 0,-16.3333 0,-24 z"
       id="path3324"
       inkscape:connector-curvature="0"
       sodipodi:nodetypes="ccccccccc" />
    <path
       style="fill:#0000ff;stroke:none;opacity:1"
       d="m 2858,8098 287,0 0,-3 29,0 0,28 -316,0 c 0,-8.3333 0,-16.6667 0,-25 z"
       id="path3326"
       inkscape:connector-curvature="0"
       sodipodi:nodetypes="ccccccc" />
    <path
       style="fill:#0000ff;stroke:none;opacity:1"
       d="m 2149,8011 0,-22 124,0 0,22 z"
       id="path3328"
       inkscape:connector-curvature="0" />
    <path
       style="fill:#0000ff;stroke:none;opacity:1"
       d="m 2133,7940 230,0 0,27 281,0 0,23 -305,0 0,-20 -206,0 c 0,-10 0,-20 0,-30 z"
       id="path3330"
       inkscape:connector-curvature="0"
       sodipodi:nodetypes="ccccccccc" />
    <path
       style="fill:#0000ff;stroke:none;opacity:1"
       d="m 3292,8093 -28,0 0,30 317,0 0,-26 -289,0 z"
       id="path3332"
       inkscape:connector-curvature="0" />
    <path
       style="fill:#0000ff;stroke:none;opacity:1"
       d="m 3319,8080 0,-24 190,0 0,-4 221,0 0,23 -193,0 0,5 z"
       id="path3334"
       inkscape:connector-curvature="0"
       sodipodi:nodetypes="ccccccccc" />
    <path
       style="fill:#0000ff;stroke:none;opacity:1"
       d="m 8417,585 -258,0 0,259 370,0 0,159 291.6626,0 0,164 37.3374,0 0,82 -217,0 0,156 24,0 0,-133 193,0 0,139 21,0 0,240 -106,0 0,24 106,0 0,92 -254,0 0,24 278,0 0,-421 -10,0 0,-248 -26,0 0,-165 -292,0 0,-159 -127,0 0,-53 -31,0 c 0,-53.33333 0,-106.66667 0,-160 z"
       id="path3350"
       inkscape:connector-curvature="0"
       sodipodi:nodetypes="ccccccccccccccccccccccccccccccccccc" />
    <path
       style="fill:#0000ff;stroke:none;opacity:1"
       d="m 8847,844 -159,0 0,-258 259,0 0,2000 -324,0 0,-24 298,0 0,-93 -334,0 0,-24 333,0 0,-1092 -9,0 0,-255 -11,0 0,-220 -53,0 c 0,-11.33333 0,-22.66667 0,-34 z"
       id="path3352"
       inkscape:connector-curvature="0"
       sodipodi:nodetypes="ccccccccccccccccccc" />
    <path
       style="fill:#0000ff;stroke:none;opacity:1"
       d="m 8767,3025 -80,0 0,-80 -67,0 0,-97 68,0 0,-80 79,0 0,-71 99,0 0,70 79,0 0,258 -80,0 0,60 165,0 0,31 -263,0 c 0,-30.3333 0,-60.6667 0,-91 z"
       id="path3354"
       inkscape:connector-curvature="0"
       sodipodi:nodetypes="ccccccccccccccccccc" />
    <path
       style="fill:#0000ff;stroke:none;opacity:1"
       d="m 9020,2678 0,30 -392,0 0,354 -96,0 0,123.9957 64,0 0,10.0043 413,0 0,26 -513,0 0,-189 91,0 0,-355 c 144.3333,0 288.6667,0 433,0 z"
       id="path3356"
       inkscape:connector-curvature="0"
       sodipodi:nodetypes="ccccccccccccccc" />
    <path
       style="fill:#0000ff;stroke:none;opacity:1"
       d="m 8709,2302 0,78 25,0 0,-53 42,0 0,-159 50,0 0,-25 -50,0 0,-201 -116,0 0,-33 -36,0 0,58 127,0 0,335 z"
       id="path3358"
       inkscape:connector-curvature="0" />
    <path
       style="fill:#0000ff;stroke:none;opacity:1"
       d="m 8535,2067 0,-36 120,0 0,36 z"
       id="path3360"
       inkscape:connector-curvature="0"
       sodipodi:nodetypes="ccccc" />
    <path
       style="fill:#0000ff;stroke:none;opacity:1"
       d="m 9066,2620 -460,0 0,-92 297,0 0,-25 -334,0 0,-81 334,0 0,-596 -297,0 0,-93.229 255,0 0,-23.771 -255,0 0,-66.0227 139,0 0,-25.9773 116,0 0,-24 -116,0 0,-22 -139,0 0,-97 122,0 0,-137 112,0 0,-30 -141,0 0,132 -92,0 0,-223 233,0 0,-27 -185,0 0,-73 -78,0 0,709 -43,0 0,31 312.0839,0 0,530 -90.0839,0 0,11 -186,0 0,-229 -35,0 0,847 29,0 0,-370 502,0 z"
       id="path3362"
       inkscape:connector-curvature="0"
       sodipodi:nodetypes="ccccccccccccccccccccccccccccccccccccccccccccccccccc" />
    <path
       style="fill:#0000ff;stroke:none;opacity:1"
       d="M 9057 423 L 9057 2297 L 8962 2297 L 8962 2411 L 9057 2411 L 9057 2504 L 8963 2504 L 8963 2528 L 9057 2528 L 9057 3138 L 8613 3138 L 8613 3174 L 9031 3174 L 9031 3256 L 8539 3256 L 8539 3277 L 8534 3277 L 8534 3650 L 8563 3650 L 8563 3280 L 9057 3280 L 9057 3774 L 8613 3774 L 8613 3809 L 9030 3809 L 9030 3891 L 8539 3891 L 8539 3912 L 8534 3912 L 8534 4286 L 8564 4286 L 8564 3915 L 9057 3915 L 9057 4409 L 8613 4409 L 8613 4445 L 9030 4445 L 9030 4526 L 8538 4526 L 8538 4547 L 8534 4547 L 8534 4921 L 8562 4921 L 8563 4921 L 8563 4550 L 9057 4550 L 9057 5045 L 8613 5045 L 8613 5080 L 9030 5080 L 9030 5162 L 8538 5162 L 8538 5182 L 8533 5182 L 8533 5556 L 8563 5556 L 8563 5186 L 9057 5186 L 9057 5680 L 8612 5680 L 8612 5716 L 9031 5716 L 9031 5796 L 8538 5796 L 8538 5817 L 8534 5817 L 8534 6191 L 8563 6191 L 8563 5821 L 9057 5821 L 9057 6316 L 8613 6316 L 8613 6350 L 9021 6350 L 9031 6350 L 9031 6432 L 8538 6432 L 8538 6456 L 9056 6456 L 9056 6961.1875 L 8577.4375 6961.1875 L 8577.4375 6538.1875 L 8532.4375 6538.1875 L 8532 6578 L 8553 6578 L 8553.4375 6664.1875 L 8538.4375 6664.1875 L 8538.4375 6985.1875 L 9056 6985.1875 L 9056 7491 L 8578 7491 L 8578 7068 L 8533 7068 L 8533 7107 L 8554 7107 L 8554 7194 L 8539 7194 L 8539 7515 L 9056 7515 L 9056 8893 L 9056 8950 L 9109 8950 L 9109 423 L 9057 423 z "
       id="path3364" />
    <path
       style="fill:#0000ff;stroke:none;opacity:1"
       d="m 9028,4386 -262,0 0,-88 -79,0 0,-80 -72,0 0,-100 72,0 0,-80 79,0 0,-64 100.1808,0 0,65 78.8192,0 0,257 -79,0 0,60 162,0 z"
       id="path3366"
       inkscape:connector-curvature="0" />
    <path
       style="fill:#0000ff;stroke:none;opacity:1"
       d="m 9007,4492 -511,0 0,-189 90,0 0,-354 433,0 0,30 -391,0 0,355 -96,0 0,123 63,0 0,10 412,0 z"
       id="path3368"
       inkscape:connector-curvature="0"
       sodipodi:nodetypes="ccccccccccccccc" />
    <path
       style="fill:#0000ff;stroke:none;opacity:1"
       d="m 8550,4439 0,-87 26,0 0,87 z"
       id="path3370"
       inkscape:connector-curvature="0" />
    <path
       style="fill:#0000ff;stroke:none;opacity:1"
       d="m 9009,3832 -414,0 0,-11 -64,0 0,-123 95,0 0,-355 393,0 0,-29 -432,0 0,353 -90,0 0,190 512,0 z"
       id="path3374"
       inkscape:connector-curvature="0" />
    <path
       style="fill:#0000ff;stroke:none;opacity:1"
       d="m 8550,3804 0,-89 25,0 0,89 z"
       id="path3376"
       inkscape:connector-curvature="0" />
    <path
       style="fill:#0000ff;stroke:none;opacity:1"
       d="m 9029,3751 -262,0 0,-90 -80,0 0,-80 -78,0 0,-98 79,0 0,-80 78,0 0,-68 101,0 0,68 78.7608,0 0,257 -79.7608,0 0,61 163,0 z"
       id="path3378"
       inkscape:connector-curvature="0" />
    <path
       style="fill:#0000ff;stroke:none;opacity:1"
       d="m 8550,3169 0,-88 25,0 0,88 z"
       id="path3382"
       inkscape:connector-curvature="0" />
    <path
       style="fill:#0000ff;stroke:none;opacity:1"
       d="m 8407,1392 0,25 16,0 0,84 25,0 0,-110 -41,0 z"
       id="path3384"
       inkscape:connector-curvature="0" />
    <path
       style="fill:#0000ff;stroke:none;opacity:1"
       d="m 8449,1519 -31,0 0,156 30,0 0,-156 z"
       id="path3386"
       inkscape:connector-curvature="0" />
    <path
       style="fill:#0000ff;stroke:none;opacity:1"
       d="m 8405,1768 -77,0 0,23 77,0 z"
       id="path3388"
       inkscape:connector-curvature="0" />
    <path
       style="fill:#0000ff;stroke:none;opacity:1"
       d="m 8405,2005 -30,0 0,291 31,0 0,-291 z"
       id="path3390"
       inkscape:connector-curvature="0" />
    <path
       style="fill:#0000ff;stroke:none;opacity:1"
       d="m 8406,2485 0,-173 -35,0 0,32 -53,0 0,27 57,0 0,114 z"
       id="path3392"
       inkscape:connector-curvature="0" />
    <path
       style="fill:#0000ff;stroke:none;opacity:1"
       d="m 8405,2561 -119,0 0,25 119,0 z"
       id="path3394"
       inkscape:connector-curvature="0" />
    <path
       style="fill:#0000ff;stroke:none;opacity:1"
       d="m 8406,2827 -78,0 0,24 53,0 0,75 25,0 c 0,-33 0,-66 0,-99 z"
       id="path3396"
       inkscape:connector-curvature="0"
       sodipodi:nodetypes="ccccccc" />
    <path
       style="fill:#0000ff;stroke:none;opacity:1"
       d="m 8406,3121 0,-141 -89,0 0,25 59,0 0,116 z"
       id="path3398"
       inkscape:connector-curvature="0"
       sodipodi:nodetypes="ccccccc" />
    <path
       style="fill:#0000ff;stroke:none;opacity:1"
       d="m 8405,3196 -120,0 0,25 120,0 z"
       id="path3400"
       inkscape:connector-curvature="0" />
    <path
       style="fill:#0000ff;stroke:none;opacity:1"
       d="m 8406,3561 0,-99 -78,0 0,24 53,0 0,75 z"
       id="path3402"
       inkscape:connector-curvature="0"
       sodipodi:nodetypes="ccccccc" />
    <path
       style="fill:#0000ff;stroke:none;opacity:1"
       d="m 8375,3756 0,-116 -58,0 0,-27 88,0 0,143 z"
       id="path3404"
       inkscape:connector-curvature="0" />
    <path
       style="fill:#0000ff;stroke:none;opacity:1"
       d="m 8405,3833 -120,0 0,24 120,0 z"
       id="path3406"
       inkscape:connector-curvature="0" />
    <path
       style="fill:#0000ff;stroke:none;opacity:1"
       d="m 8405,4196 0,-99 -77,0 0,24 53,0 0,75 z"
       id="path3408"
       inkscape:connector-curvature="0" />
    <path
       style="fill:#0000ff;stroke:none;opacity:1"
       d="m 8405,4252 -88,0 0,23 58,0 0,116 30,0 z"
       id="path3410"
       inkscape:connector-curvature="0" />
    <path
       style="fill:#0000ff;stroke:none;opacity:1"
       d="m 8405,4468 -120,0 0,24 120,0 0,-24 z"
       id="path3412"
       inkscape:connector-curvature="0" />
    <path
       style="fill:#0000ff;stroke:none;opacity:1"
       d="m 8379,4831 0,-74 -52,0 0,-25 77,0 0,99 z"
       id="path3414"
       inkscape:connector-curvature="0"
       sodipodi:nodetypes="ccccccc" />
    <path
       style="fill:#0000ff;stroke:none;opacity:1"
       d="m 8375,5026 0,-115 -59,0 0,-26 90,0 0,141 z"
       id="path3416"
       inkscape:connector-curvature="0" />
    <path
       style="fill:#0000ff;stroke:none;opacity:1"
       d="m 8405,5103 -120,0 0,24 120,0 z"
       id="path3418"
       inkscape:connector-curvature="0" />
    <path
       style="fill:#0000ff;stroke:none;opacity:1"
       d="m 8380,5467 0,-74 -52,0 0,-26 77,0 0,100 z"
       id="path3420"
       inkscape:connector-curvature="0" />
    <path
       style="fill:#0000ff;stroke:none;opacity:1"
       d="m 8374,5662 0,-117 -58,0 0,-24 90,0 0,141 z"
       id="path3422"
       inkscape:connector-curvature="0"
       sodipodi:nodetypes="ccccccc" />
    <path
       style="fill:#0000ff;stroke:none;opacity:1"
       d="m 8284,5739 0,23 121,0 0,-24 -121,0 z"
       id="path3424"
       inkscape:connector-curvature="0" />
    <path
       style="fill:#0000ff;stroke:none;opacity:1"
       d="m 8380,6102 0,-75 -53,0 0,-24 78,0 0,99 z"
       id="path3426"
       inkscape:connector-curvature="0" />
    <path
       style="fill:#0000ff;stroke:none;opacity:1"
       d="m 8404,6156 -88,0 0,24 59,0 0,117 29,0 z"
       id="path3428"
       inkscape:connector-curvature="0" />
    <path
       style="fill:#0000ff;stroke:none;opacity:1"
       d="m 8405,6373 -121,0 0,25 121,0 z"
       id="path3430"
       inkscape:connector-curvature="0" />
    <path
       style="fill:#0000ff;stroke:none;opacity:1"
       d="m 8285,6514 0,-24 182,0 0,178 -30,0 0,-26 6,0 0,-128 z"
       id="path3432"
       inkscape:connector-curvature="0" />
    <path
       style="fill:#0000ff;stroke:none;opacity:1"
       d="m 8394,6634 -30,0 0,20 -38,0 0,288 68,0 0,-23 -43,0 0,-240 43,0 z"
       id="path3434"
       inkscape:connector-curvature="0"
       sodipodi:nodetypes="ccccccccccc" />
    <path
       style="fill:#0000ff;stroke:none;opacity:1"
       d="m 8425,7144 0,-82 -29,0 0,58 -96,0 0,40 29,0 0,-16 z"
       id="path3436"
       inkscape:connector-curvature="0" />
    <path
       style="fill:#0000ff;stroke:none;opacity:1"
       d="m 8394,7208 0,-45 -31,0 0,20 -37,0 0,290 70,0 0,-24 -44.4214,0 0,-241 z"
       id="path3438"
       inkscape:connector-curvature="0" />
    <path
       style="fill:#0000ff;stroke:none;opacity:1"
       d="m 8438,7197 29,0 0,-178 -183,0 0,24 159,0 0,130 -5,0 z"
       id="path3440"
       inkscape:connector-curvature="0" />
    <path
       style="fill:#0000ff;stroke:none;opacity:1"
       d="m 8330,7690 0,-16 94,0 0,-83 -29,0 0,58 -95,0 0,41 z"
       id="path3442"
       inkscape:connector-curvature="0"
       sodipodi:nodetypes="ccccccccc" />
    <path
       style="fill:#0000ff;stroke:none;opacity:1"
       d="m 8467,7726 0,-177 -183,0 0,24 158,0 0,129 -4,0 0,24 z"
       id="path3444"
       inkscape:connector-curvature="0" />
    <path
       style="fill:#0000ff;stroke:none;opacity:1"
       d="m 8393,7841 -24,0 0,113 47,0 0,165 30,0 0,-62 -5,0 0,-129 -47,0 0,-87 z"
       id="path3446"
       inkscape:connector-curvature="0" />
    <path
       style="fill:#0000ff;stroke:none;opacity:1"
       d="m 8573,8199 -42,0 0,-26 74,0 0,102 -32,0 z"
       id="path3448"
       inkscape:connector-curvature="0" />
    <path
       style="fill:#0000ff;stroke:none;opacity:1"
       d="m 8684,8115 0,-28 -151,0 0,-25 331,0 0,26 -137,0 0,27 z"
       id="path3450"
       inkscape:connector-curvature="0" />
    <path
       style="fill:#0000ff;stroke:none;opacity:1"
       d="m 9029,5022 -263,0 0,-90 -79,0 0,-80 -74,0 0,-98 73,0 0,-80 79,0 0,-70 101,0 0,69 79,0 0,258 -80,0 0,61 164,0 z"
       id="path3452"
       inkscape:connector-curvature="0" />
    <path
       style="fill:#0000ff;stroke:none;opacity:1"
       d="m 8550,5074 0,-87 24,0 0,87 z"
       id="path3456"
       inkscape:connector-curvature="0"
       sodipodi:nodetypes="ccccc" />
    <path
       style="fill:#0000ff;stroke:none;opacity:1"
       d="m 9018,4584 -431,0 0,355 -90,0 0,188 508,0 0,-24 -410,0 0,-11 -64,0 0,-123 95,0 0,-355 392,0 z"
       id="path3458"
       inkscape:connector-curvature="0"
       sodipodi:nodetypes="ccccccccccccccc" />
    <path
       style="fill:#0000ff;stroke:none;opacity:1"
       d="m 9029,5657 -263,0 0,-90 -79,0 0,-79 -77,0 0,-99 77,0 0,-79 79,0 0,-71 99,0 0,71 81,0 0,256 -82,0 0,61 164,0 z"
       id="path3460"
       inkscape:connector-curvature="0"
       sodipodi:nodetypes="ccccccccccccccccccc" />
    <path
       style="fill:#0000ff;stroke:none;display:inline;opacity:1"
       d="m 9029,6293 -263,0 0,-90 -79,0 0,-80 -74,0 0,-98 73,0 0,-80 79,0 0,-70 101,0 0,69 79,0 0,258 -80,0 0,61 164,0 z"
       id="path3452-6"
       inkscape:connector-curvature="0" />
    <path
       style="fill:#0000ff;stroke:none;display:inline;opacity:1"
       d="m 9018,5855 -431,0 0,355 -90,0 0,188 508,0 0,-24 -410,0 0,-11 -64,0 0,-123 95,0 0,-355 392,0 z"
       id="path3458-7"
       inkscape:connector-curvature="0"
       sodipodi:nodetypes="ccccccccccccccc" />
    <path
       style="fill:#0000ff;stroke:none;opacity:1"
       d="m 9018,7549 -486,0 0,26 64,0 0,417 421,0 0,-38 -391,0 0,-375 392,0 z"
       id="path3508"
       inkscape:connector-curvature="0" />
    <path
       style="fill:#0000ff;stroke:none;opacity:1"
       d="m 8866,7965 0,-68 78,0 0,-259 -81,0 0,-70 -99,0 0,70 -78,0 0,79 -70,0 0,100 68,0 0,80 81,0 0,68 z"
       id="path3510"
       inkscape:connector-curvature="0"
       sodipodi:nodetypes="ccccccccccccccccc" />
    <path
       style="fill:#0000ff;stroke:none;display:inline;opacity:1"
       d="m 9018,7020 -486,0 0,26 64,0 0,417 421,0 0,-38 -391,0 0,-375 392,0 z"
       id="path3508-0"
       inkscape:connector-curvature="0" />
    <path
       style="fill:#0000ff;stroke:none;display:inline;opacity:1"
       d="m 8866,7436 0,-68 78,0 0,-259 -81,0 0,-70 -99,0 0,70 -78,0 0,79 -70,0 0,100 68,0 0,80 81,0 0,68 z"
       id="path3510-9"
       inkscape:connector-curvature="0"
       sodipodi:nodetypes="ccccccccccccccccc" />
    <path
       style="fill:#0000ff;stroke:none;display:inline;opacity:1"
       d="m 9018,6490 -486,0 0,26 64,0 0,417 421,0 0,-38 -391,0 0,-375 392,0 z"
       id="path3508-5"
       inkscape:connector-curvature="0" />
    <path
       style="fill:#0000ff;stroke:none;display:inline;opacity:1"
       d="m 8866,6906 0,-68 78,0 0,-259 -81,0 0,-70 -99,0 0,70 -78,0 0,79 -70,0 0,100 68,0 0,80 81,0 0,68 z"
       id="path3510-0"
       inkscape:connector-curvature="0"
       sodipodi:nodetypes="ccccccccccccccccc" />
    <path
       style="fill:#0000ff;stroke:none;display:inline;opacity:1"
       d="m 8550,5710 0,-87 24,0 0,87 z"
       id="path3456-9"
       inkscape:connector-curvature="0"
       sodipodi:nodetypes="ccccc" />
    <path
       style="fill:#0000ff;stroke:none;display:inline;opacity:1"
       d="m 9018,5220 -431,0 0,355 -90,0 0,188 508,0 0,-24 -410,0 0,-11 -64,0 0,-123 95,0 0,-355 392,0 z"
       id="path3458-4"
       inkscape:connector-curvature="0"
       sodipodi:nodetypes="ccccccccccccccc" />
    <path
       style="fill:#0000ff;stroke:none;opacity:1"
       d="m 9061,8020 -483,0 0,-423 -45,0 0,39 21,0 0,88 -21,0 0,320 370,0 0,124 -133,0 0,30 133,0 0,69 24,0 0,-101 76,0 0,182 -127,0 0,42 -202,0 0,-218 -42,0 0,118 -80,0 0,-17 -470,0 0,26 445,0 0,15 69,0 0,76 -547,0 0,531 26,0 0,-506 620,0 0,6 366,0 z"
       id="path3605"
       inkscape:connector-curvature="0" />
    <path
       style="fill:#0000ff;stroke:none;opacity:1"
       d="M 6871 8374 L 6871 8395 L 6783 8395 L 6783 8379 L 6462 8379 L 6462 8897 L 968 8897 L 434 8897 L 434 8950 L 9109 8950 L 9109 8897 L 8721 8897 L 8721 8490 L 8695 8490 L 8695 8897 L 8191 8897 L 8191 8490 L 8167 8490 L 8167 8897 L 7546.1562 8897 L 7546.1562 8420 L 7970 8420 L 7970 8374 L 7929 8374 L 7929 8396 L 7841 8396 L 7841 8380 L 7521 8380 L 7521 8897 L 7017 8897 L 7017 8420 L 7440 8420 L 7440 8375 L 7399 8375 L 7399 8395 L 7312 8395 L 7312 8380 L 6990 8380 L 6990 8897 L 6487 8897 L 6487 8420 L 6912 8420 L 6912 8374 L 6871 8374 z "
       id="path3607" />
    <path
       style="fill:#0000ff;stroke:none;opacity:1"
       d="M 434 422 L 434 8950 L 487.03125 8950 L 487.03125 970 L 503 970 L 503 737 L 894 737 L 894 712 L 502 712 L 502 620 L 487.03125 620 L 487.03125 422 L 434 422 z "
       id="path3624" />
    <path
       style="fill:#0000ff;stroke:none;opacity:1"
       d="m 470,1965 32,0 0,-234 392,0 0,-25 -392,0 0,-90 53,0 0,-153 -85,0 z"
       id="path3629"
       inkscape:connector-curvature="0" />
    <path
       style="opacity:1;fill:#0000ff;stroke:none;display:inline"
       d="m 469,2951 32,0 0,-234 392,0 0,-25 -392,0 0,-90 53,0 0,-153 -85,0 z"
       id="path3629-3"
       inkscape:connector-curvature="0" />
    <path
       style="opacity:1;fill:#0000ff;stroke:none;display:inline"
       d="m 470,3935 32,0 0,-234 392,0 0,-25 -392,0 0,-90 53,0 0,-153 -85,0 z"
       id="path3629-5"
       inkscape:connector-curvature="0" />
    <path
       style="opacity:1;fill:#0000ff;stroke:none;display:inline"
       d="m 470,4922 32,0 0,-234 392,0 0,-25 -392,0 0,-90 53,0 0,-153 -85,0 z"
       id="path3629-57"
       inkscape:connector-curvature="0" />
    <path
       style="opacity:1;fill:#0000ff;stroke:none;display:inline"
       d="m 469,5905 32,0 0,-234 392,0 0,-25 -392,0 0,-90 53,0 0,-153 -85,0 z"
       id="path3629-7"
       inkscape:connector-curvature="0" />
    <path
       style="opacity:1;fill:#0000ff;stroke:none;display:inline"
       d="m 469,6890 32,0 0,-234 392,0 0,-25 -392,0 0,-90 53,0 0,-153 -85,0 z"
       id="path3629-35"
       inkscape:connector-curvature="0" />
    <path
       style="opacity:1;fill:#0000ff;stroke:none;display:inline"
       d="m 469,7875 32,0 0,-234 392,0 0,-25 -392,0 0,-90 53,0 0,-153 -85,0 z"
       id="path3629-4"
       inkscape:connector-curvature="0" />
    <path
       style="fill:#0000ff;stroke:none;opacity:1"
       d="M 484 458 L 484 621 L 965 621 L 965 985 L 969 985 L 969 1458 L 969 1463 L 547 1463 L 547 1531 L 938 1531 L 938 1580 L 547 1580 L 547 1615 L 964 1615 L 964 1977 L 968 1977 L 968 2460 L 546 2460 L 546 2516 L 938 2516 L 938 2565 L 549 2565 L 549 2602 L 964 2602 L 964 2961 L 967 2961 L 967 3445 L 545 3445 L 545 3501 L 937 3501 L 937 3550 L 548 3550 L 548 3587 L 964 3587 L 964 3946 L 968 3946 L 968 4429 L 546 4429 L 546 4485 L 938 4485 L 938 4534 L 549 4534 L 549 4571 L 964 4571 L 964 4931 L 969 4931 L 969 5415 L 545 5415 L 545 5471 L 937 5471 L 937 5520 L 548 5520 L 548 5557 L 964 5557 L 964 5916 L 969 5916 L 969 6393 L 966 6393 L 966 6399 L 544 6399 L 544 6455 L 936 6455 L 936 6504 L 547 6504 L 547 6541 L 964 6541 L 964 6900 L 969 6900 L 969 7384 L 545 7384 L 545 7440 L 937 7440 L 937 7489 L 548 7489 L 548 7526 L 963 7526 L 963 7885 L 968 7885 L 968 8362 L 968 8364 L 968 8369 L 478 8369 L 478 8413.875 L 968 8413.875 L 968 8906 L 1258 8906 L 1258 8691 L 1241 8691 L 1241 8548 L 1217 8548 L 1217 8691 L 1156 8691 L 1156 8548 L 1116 8548 L 1116 8721 L 1233 8721 L 1233 8808 L 993 8808 L 993 8721 L 1014 8721 L 1014 8601 L 994 8601 L 994 8393 L 1035 8393 L 1035 8362 L 992 8362 L 992 8165 L 1035 8165 L 1035 8130 L 992 8130 L 992 7430 L 1036 7430 L 1036 7378 L 993 7378 L 993 7180 L 1036 7180 L 1036 7145 L 993 7145 L 993 6538 L 992 6538 L 992 6445 L 1035 6445 L 1035 6393 L 993 6393 L 993 6196 L 1036 6196 L 1036 6161 L 993 6161 L 993 5557 L 993 5554 L 993 5461 L 1036 5461 L 1036 5409 L 993 5409 L 993 5211 L 1036 5211 L 1036 5176 L 993 5176 L 993 4571 L 994 4571 L 994 4475 L 1037 4475 L 1037 4423 L 994 4423 L 994 4227 L 1036 4227 L 1036 4191 L 993 4191 L 993 3587 L 993 3584 L 993 3491 L 1036 3491 L 1036 3439 L 994 3439 L 994 3241 L 1036 3241 L 1036 3207 L 994 3207 L 994 2602 L 994 2597 L 994 2506 L 1037 2506 L 1037 2454 L 994 2454 L 994 2256 L 1037 2256 L 1037 2222 L 994 2222 L 994 1615 L 994 1611 L 994 1520 L 1036 1520 L 1036 1458 L 994.8125 1458 L 994.8125 1261 L 1037 1261 L 1037 1225 L 995 1225 L 995 525 L 1038 525 L 1038 458 L 484 458 z "
       id="path3684" />
    <path
       style="fill:#0000ff;stroke:none"
       d="m 1038,1558 -25,0 0,402 24,0 0,-402 z"
       id="path3788"
       inkscape:connector-curvature="0" />
    <path
       style="fill:#0000ff;stroke:none"
       d="m 1038,564 -25,0 0,410 25,0 z"
       id="path3808"
       inkscape:connector-curvature="0" />
    <path
       style="fill:#0000ff;stroke:none"
       d="m 1037,2545 -24,0 0,399 24,0 z"
       id="path3810"
       inkscape:connector-curvature="0" />
    <path
       style="fill:#0000ff;stroke:none"
       d="m 1037,3530 -25,0 0,401 25,0 z"
       id="path3812"
       inkscape:connector-curvature="0" />
    <path
       style="fill:#0000ff;stroke:none"
       d="m 1036,4513 -24,0 0,401 24,0 z"
       id="path3814"
       inkscape:connector-curvature="0" />
    <path
       style="fill:#0000ff;stroke:none"
       d="m 1036,5499 -24,0 0,401 24,0 z"
       id="path3816"
       inkscape:connector-curvature="0" />
    <path
       style="fill:#0000ff;stroke:none"
       d="m 1035,6484 -23,0 0,399 23,0 z"
       id="path3818"
       inkscape:connector-curvature="0" />
    <path
       style="fill:#0000ff;stroke:none"
       d="m 1037,7468 -26,0 0,400 26,0 z"
       id="path3820"
       inkscape:connector-curvature="0" />
    <path
       style="fill:#0000ff;stroke:none"
       d="M 434 422 L 434 474 L 1330 474 L 1330 515 L 1440 515 L 1440 474 L 5211 474 L 5211 748 L 5246 748 L 5246 474 L 6280 474 L 6280 939 L 6305 939 L 6305 474 L 9110 474 L 9110 422 L 434 422 z "
       id="path3822" />
    <path
       style="fill:#0000ff;stroke:none"
       d="M 1322 716 L 1322 8414 L 1545 8414 L 1545.0312 8897 L 1575 8897 L 1574.9688 8414 L 2058 8414 L 2058 8908 L 2136 8908 L 2136 8414 L 2618.9688 8414 L 2618.9688 8925 L 2697 8925 L 2697 8415 L 3180 8415 L 3180 8902 L 3258 8902 L 3258 8414 L 3741 8414 L 3741 8905 L 3972 8905 L 3972 8526 L 4064 8526 L 4064 8817 L 4089 8817 L 4089 8520 L 4181 8520 L 4181 8817 L 4206 8817 L 4206 8521 L 4298 8521 L 4298 8817 L 4323 8817 L 4323 8485 L 4137 8485 L 4137 8383 L 4330 8383 L 4330 8414 L 5910 8414 L 5910 8903 L 5958.4062 8903 L 5958.4062 8419.7812 L 6381 8419.7812 L 6381 8375 L 6341 8375 L 6341 8396 L 6255 8396 L 6255 8380 L 5958 8380 L 5958 8187 L 6048 8187 L 6048 8150 L 6148 8150 L 6148 8107 L 6346 8107 L 6346 8219 L 6370 8219 L 6370 8107 L 6463 8107 L 6463 8245 L 6487 8245 L 6487 8108 L 6642 8108 L 6642 8151 L 6678 8151 L 6678 8107 L 6875 8107 L 6875 8219 L 6900 8219 L 6900 8107 L 6992 8107 L 6992 8246 L 7016 8246 L 7016 8108 L 7172 8108 L 7172 8150 L 7207 8150 L 7207 8107 L 7405 8107 L 7405 8219 L 7430 8219 L 7430 8107 L 7521 8107 L 7521 8246 L 7546 8246 L 7546 8107 L 7701 8107 L 7701 8150 L 7736 8150 L 7736 8107 L 7933 8107 L 7933 8219 L 8012 8219 L 8012 8204 L 8076 8204 L 8076 8109 L 8241 8109 L 8241 8177 L 8340 8177 L 8340 8141 L 8266 8141 L 8266 7631 L 8377 7631 L 8377 7608 L 8266 7608 L 8266 7515 L 8405 7515 L 8405 7490 L 8266 7490 L 8266 7334 L 8308 7334 L 8308 7299 L 8266 7299 L 8266 7102 L 8378 7102 L 8378 7077 L 8266 7077 L 8266 6986 L 8404 6986 L 8404 6961 L 8266 6961 L 8266 6806 L 8310 6806 L 8310 6770 L 8266 6770 L 8266 6573 L 8378 6573 L 8378 6548 L 8266 6548 L 8266 6457 L 8404 6457 L 8404 6431 L 8266 6431 L 8266 6340 L 8404 6340 L 8404 6315 L 8266 6315 L 8266 5943 L 8298 5943 L 8298 5912 L 8266 5912 L 8266 5826 L 8404 5826 L 8404 5796.1875 L 8266 5796.1875 L 8266 5705 L 8404 5705 L 8404 5679 L 8266 5679 L 8266 5308 L 8298 5308 L 8298 5277 L 8266 5277 L 8266 5191 L 8405 5191 L 8405 5160 L 8266 5160 L 8266 5069 L 8405 5069 L 8405 5044 L 8266 5044 L 8266 4672 L 8299 4672 L 8299 4641 L 8266 4641 L 8266 4555 L 8404 4555 L 8404 4526 L 8266 4526 L 8266 4433 L 8405 4433 L 8405 4410 L 8267 4410 L 8267 4037 L 8299 4037 L 8299 4007 L 8267 4007 L 8267 3920 L 8405 3920 L 8405 3891 L 8267 3891 L 8267 3798 L 8405 3798 L 8405 3773.5 L 8267 3773.5 L 8267 3402 L 8300 3402 L 8300 3371 L 8267 3371 L 8267 3285 L 8405 3285 L 8405 3255 L 8267 3255 L 8267 3163 L 8405 3163 L 8405 3139 L 8267 3139 L 8267 2766 L 8299 2766 L 8299 2736 L 8267 2736 L 8267 2650 L 8406 2650 L 8406 2620 L 8267 2620 L 8267 2528 L 8405 2528 L 8405 2504 L 8299.2188 2504 L 8299.2188 2252 L 8357 2252 L 8357 1860 L 8406 1860 L 8406 1826 L 8310 1826 L 8310 1734 L 8401 1734 L 8401 1709 L 8311 1709 L 8311 1564 L 8342 1564 L 8342 1540 L 8311 1540 L 8311 1337 L 8342 1337 L 8342 1249 L 8300 1249 L 8300 1166 L 8311 1166 L 8311 1127 L 8094.9375 1127 L 8094.9375 1172.875 L 8179.9375 1172.875 L 8179.9375 1363 L 8186 1363 L 8186 1945 L 8254 1945 L 8254 2116 L 8152 2116 L 8152 2070 L 8122 2070 L 8122 2157 L 8141 2157 L 8141 2620 L 8095 2620 L 8095 2793 L 8141 2793 L 8141 3255 L 8096 3255 L 8096 3429 L 8141 3429 L 8141 3890 L 8095 3890 L 8095 4064 L 8141 4064 L 8141 4526 L 8094 4526 L 8094 4699 L 8141 4699 L 8141 5161 L 8094 5161 L 8094 5334 L 8141 5334 L 8141 5797 L 8094 5797 L 8094 5969 L 8141 5969 L 8141 6432 L 8093 6432 L 8093 7934 L 5833 7934 L 5833 8078 L 5779 8078 L 5779 8305 L 5774 8305 L 5153 8305 L 5153 8157 L 5118 8157 L 5118 8305 L 4561 8305 L 4561 8273 L 4169 8273 L 4169 8242 L 3854 8242 L 3854 8305 L 1406 8305 L 1406.0625 7916 L 1788 7916 L 1788 7942 L 1813 7942 L 1813 7917 L 2381 7917 L 2381 7943 L 2407 7943 L 2407 7917 L 2911 7917 L 2911 7943 L 2936 7943 L 2936 7916 L 3503 7916 L 3503 7944 L 3528 7944 L 3528 7916 L 3788 7916 L 3788 7906 L 4351 7906 L 4351 7980 L 4375 7980 L 4375 7906 L 5671 7906 L 5671 7742 L 5942 7742 L 5942 7738 L 7600 7738 L 7600 7702 L 5942 7702 L 5942 7676 L 5632 7676 L 5632 7760 L 5309 7760 L 5309 7785 L 5631 7785 L 5631 7850 L 1406.0625 7850 L 1406.1562 7314 L 7654 7314 L 7654 7417 L 7512 7417 L 7512 7443 L 7426 7443 L 7426 7482 L 7758 7482 L 7758 7300 L 7735 7299 L 7735 7282 L 1808 7283 L 1808 7138 L 3339 7138 L 3339 7114 L 1784 7114 L 1784 7284 L 1723 7284 L 1723 6969 L 7416 6969 L 7416 7012 L 7622 7012 L 7622 7054 L 7712 7054 L 7712 7080 L 7896 7080 L 7896 6924 L 7872 6924 L 7872 7007 L 7658 7007 L 7658 6940 L 7477 6940 L 7477 6898 L 6971 6898 L 6971 6939 L 1679 6939 L 1679 7267 L 1406.1562 7267 L 1406.25 6598 L 1466 6598 L 1466 6625 L 1587 6625 L 1587 6577 L 3048 6577 L 3048 6552 L 1551 6552 L 1551 6600 L 1493 6600 L 1493 6573 L 1406.25 6573 L 1406.3125 6243 L 1879 6243 L 1879 6275 L 2033 6275 L 2033 6285 L 2128 6285 L 2128 6355 L 2152 6355 L 2152 6276 L 2286 6276 L 2286 6271 L 2386 6271 L 2386 6244 L 2604 6244 L 2604 6270 L 2682 6270 L 2682 6275 L 2757 6275 L 2757 6285 L 2927 6285 L 2927 6318 L 2957 6318 L 2957 6270 L 3181 6270 L 3181 6318 L 3212 6318 L 3212 6286 L 3380 6286 L 3380 6245 L 3460 6245 L 3460 6238 L 3563 6238 L 3563 6270 L 3731 6270 L 3731 6318 L 3762 6318 L 3762 6286 L 3931 6286 L 3931 6275 L 4085 6275 L 4085 6233 L 4171 6233 L 4171 6238 L 4230 6238 L 4230 6318 L 4364 6318 L 4364 6293 L 4261 6293 L 4261 6233 L 4531 6233 L 4531 6318 L 4579 6318 L 4579 6233 L 5738 6233 L 5738 6245 L 6213 6245 L 6213 6234 L 7542 6234 L 7542 6203 L 6128 6203 L 6128 6173 L 6087 6173 L 6087 6214 L 5773 6214 L 5773 6204 L 4249 6204 L 4249 6193 L 4054 6193 L 4054 6246 L 3605 6246 L 3605 6193 L 3547 6193 L 3547 6203 L 3213 6203 L 3213 6214 L 3085 6214 L 3085 6245 L 2635 6245 L 2635 6214 L 2359 6214 L 2359 6246 L 1910 6246 L 1910 6214 L 1406.3125 6214 L 1406.375 5793.9375 L 2018 5793.9375 L 2018 5837 L 2158 5837 L 2158 5793 L 2743 5793 L 2743 5836 L 2883 5836 L 2883 5794 L 3261 5794 L 3261 5852 L 3311 5852 L 3311 5825 L 3482 5825 L 3482 5793 L 3807 5793 L 3807 5835 L 3947 5835 L 3947 5794 L 7541 5794 L 7541 5764 L 3512 5764 L 3512 5759 L 3472 5759 L 3472 5764 L 1406.375 5764 L 1406.4375 5360 L 1880 5360 L 1880 5386 L 1958 5386 L 1958 5392 L 2033 5392 L 2033 5402 L 2202 5402 L 2202 5433 L 2231 5433 L 2231 5386 L 2386 5386 L 2386 5360 L 2605 5360 L 2605 5386 L 2683 5386 L 2683 5391 L 2759 5391 L 2759 5401 L 2927 5401 L 2927 5434 L 2957 5434 L 2957 5386 L 3181 5386 L 3181 5434 L 3211 5434 L 3211 5401 L 3380 5401 L 3380 5359 L 3461 5359 L 3461 5354 L 3563 5354 L 3563 5386 L 3732 5386 L 3732 5434 L 3761 5434 L 3761 5402 L 3932 5402 L 3932 5392 L 4085 5392 L 4085 5350 L 4172 5350 L 4172 5355 L 4228 5355 L 4228 5348.75 L 4717 5348.75 L 4717 5434 L 4858 5434 L 4858 5410 L 4752 5410 L 4752 5349 L 5738 5349 L 5738 5359.7812 L 6233 5359.7812 L 6233 5349.6875 L 7542 5349.6875 L 7542 5320 L 6139 5320 L 6139 5288 L 6098 5288 L 6098 5330 L 5773 5330 L 5773 5319 L 4318 5319 L 4318 5308 L 4055 5308 L 4055 5362 L 3605 5362 L 3605 5308 L 3547 5308 L 3547 5319 L 3214 5319 L 3214 5329 L 3086 5329 L 3086 5361 L 2635 5361 L 2635 5330 L 2361 5330 L 2361 5361 L 1911 5361 L 1911 5329 L 1406.4375 5329 L 1406.5 4910 L 2017 4910 L 2017 4952 L 2158 4952 L 2158 4910 L 2742.5312 4910 L 2742.5312 4952 L 2884 4952 L 2884 4910 L 3261 4910 L 3261 4969 L 3312 4969 L 3312 4942 L 3482 4942 L 3482 4909 L 3806 4909 L 3806 4952 L 3947 4952 L 3947 4910 L 7543 4910 L 7543 4881 L 3514 4881 L 3514 4874 L 3473 4874 L 3473 4879 L 1406.5 4879 L 1406.5625 4476 L 1879 4476 L 1879 4502 L 1958 4502 L 1958 4508 L 2034 4508 L 2034 4518 L 2202 4518 L 2202 4550 L 2232 4550 L 2232 4502 L 2387 4502 L 2387 4476 L 2605 4476 L 2605 4500.9688 L 2683 4500.9688 L 2683 4508 L 2759 4508 L 2759 4518 L 2927 4518 L 2927 4550 L 2958 4550 L 2958 4502 L 3182 4502 L 3182 4550 L 3212 4550 L 3212 4518 L 3381 4518 L 3381 4476 L 3461 4476 L 3461 4471 L 3563 4471 L 3563 4503 L 3732 4503 L 3732 4550 L 3762 4550 L 3762 4518 L 3931 4518 L 3931 4507 L 4086 4507 L 4086 4465 L 4171 4465 L 4171 4470 L 4251 4470 L 4251 4465 L 5739 4465 L 5739 4476 L 6308 4476 L 6308 4465 L 7543 4465 L 7543 4435 L 6199 4435 L 6199 4445.5312 L 5774 4445.5312 L 5774 4435.3125 L 4250 4435.3125 L 4250 4425 L 4055 4425 L 4055 4477 L 3604 4477 L 3604 4424 L 3547 4424 L 3547 4435 L 3214 4435 L 3214 4446 L 3086 4446 L 3086 4477 L 2635 4477 L 2635 4445 L 2361 4445 L 2361 4477 L 1910 4477 L 1910 4445 L 1406.5625 4445 L 1406.625 4025 L 2018 4025 L 2018 4068 L 2158 4068 L 2158 4025 L 2750 4025 L 2750 4057 L 2848 4057 L 2848 4067 L 2873 4067 L 2873 4026 L 3260 4026 L 3260 4083 L 3308 4083 L 3308 4058 L 3515 4058 L 3515 4026 L 3807 4026 L 3807 4068 L 3948 4068 L 3948 4026 L 7542 4026 L 7542 3995 L 3512 3995 L 3512 3990 L 3473 3990 L 3473 3995 L 1406.625 3995 L 1406.6875 3592 L 1879 3592 L 1879 3618 L 1959 3618 L 1959 3624 L 2033 3624 L 2033 3634 L 2203 3634 L 2203 3666 L 2232 3666 L 2232 3618 L 2388 3618 L 2388 3591 L 2604 3591 L 2604 3623 L 2760 3623 L 2760 3634 L 2927 3634 L 2927 3665 L 2957 3665 L 2957 3617 L 3182 3617 L 3182 3666 L 3212 3666 L 3212 3634 L 3382 3634 L 3382 3591 L 3554 3591 L 3554 3617 L 3733 3617 L 3733 3665 L 3762 3665 L 3762 3633 L 3932 3633 L 3932 3623 L 4086 3623 L 4086 3581 L 4174 3581 L 4174 3585 L 4276 3585 L 4276 3581 L 5740 3581 L 5740 3591 L 6464 3591 L 6464 3582 L 7505 3582 L 7505 3551 L 6434 3551 L 6434 3561 L 5773 3561 L 5773 3551 L 4277 3551 L 4277 3541 L 4056 3541 L 4056 3593 L 3605 3593 L 3605 3541 L 3559 3541 L 3559 3550 L 3183 3550 L 3183 3593 L 2637 3593 L 2637 3561 L 2361 3561 L 2361 3593 L 1910 3593 L 1910 3562 L 1406.6875 3562 L 1406.75 3141 L 2018 3141 L 2018 3183 L 2158 3183 L 2158 3140.8125 L 2749 3140.8125 L 2749 3173 L 2848 3173 L 2848 3184 L 2874 3184 L 2874 3140.8125 L 3262 3140.8125 L 3262 3200 L 3312 3200 L 3312 3173.2812 L 3487 3173.2812 L 3487 3141 L 3807 3141 L 3807 3183 L 3948 3183 L 3948 3142 L 7448 3142 L 7448 3111.6875 L 3531 3111.6875 L 3531 3107 L 3473 3107 L 3473 3110 L 1406.75 3110 L 1407 1278 L 1642 1278 L 1642 1584 L 1653 1584 L 1653 1822 L 1698 1822 L 1698 1584 L 1775 1584 L 1775 1883 L 1722 1883 L 1722 2236 L 1732 2236 L 1732 2449 L 1722 2449 L 1722 2782 L 1767 2782 L 1767 2739 L 7447 2739 L 7447 2625 L 7417 2625 L 7417 2709 L 6437 2709 L 6437 2693 L 6396 2693 L 6396 2709 L 4198 2709 L 4198 2667 L 4173 2667 L 4173 2709 L 2025 2709 L 2025 2619 L 1768 2619 L 1768 2348 L 7580 2348 L 7580 2317 L 2159 2317 L 2159 2274 L 1768 2274 L 1768 1944 L 2613 1944 L 2613 1913 L 3155 1913 L 3155 1971 L 3201 1971 L 3201 1913 L 3257 1913 L 3257 1997 L 3810 1997 L 3810 1973 L 3281 1973 L 3281 1912 L 7618 1912 L 7618 1876 L 7703 1876 L 7703 1810 L 7677 1810 L 7677 1852 L 7575.5625 1852 L 7575.5625 1883 L 3794 1883 L 3794 1820 L 3770 1820 L 3770 1883.0938 L 3138 1883.0938 L 3138 1803 L 3075 1803 L 3075 1672 L 3035 1672 L 3035 1711 L 3046 1711 L 3046 1882 L 2613 1882 L 2608 1882 L 2180 1882 L 2180 1840 L 2150 1840 L 2150 1883 L 2085.125 1883 L 2085.125 1676 L 2060 1676 L 2060 1883 L 1830 1883 L 1830 1727.4062 L 1984.75 1727.4062 L 1984.75 1634 L 1968 1634 L 1968 1520 L 2043 1520 L 2043 1366 L 2393.375 1366 L 2393.375 1792 L 2301.8438 1792 L 2301.8438 1427 L 2277.3438 1427 L 2277.3438 1816 L 2418.5312 1816 L 2418.5312 1367.9375 L 2923 1367.9375 L 2923 1521 L 4256 1521 L 4256 1478.5625 L 6369 1478.5625 L 6369 1496 L 6364 1496 L 6364 1523 L 6370 1523 L 6370 1564 L 6410 1564 L 6410 1479.25 L 7517 1479.25 L 7517 1444 L 7486 1444 L 7486 1450 L 7151 1450 L 7151 1439 L 7067 1439 L 7067 1449 L 6865 1449 L 6865 1360 L 6778 1360 L 6778 1407 L 6439 1407 L 6439 1449 L 4225 1449 L 4225 1490 L 2954 1490 L 2954 1420 L 2980 1420 L 2980 1337 L 1885 1337 L 1885 1373 L 1986 1373 L 1986 1426 L 2012 1426 L 2012 1485 L 1933 1485 L 1933 1692 L 1824.4062 1692 L 1824.4062 1501 L 1814.9375 1501 L 1814.9375 1337 L 1790 1337 L 1790 1501 L 1698 1501 L 1698 1278 L 3149 1278 L 3149 1262 L 3753 1262 L 3753 1210 L 7689 1210 L 7689 1236 L 7750 1236 L 7750 1178 L 1407 1178 L 1407 1177 L 1407 991 L 1456 991 L 1456 762 L 1497 762 L 1497 716 L 1322 716 z "
       id="path3933" />
    <path
       style="fill:#0000ff;stroke:none"
       d="m 3755,458 -0.9375,498 -499.0625,0 0,-486 -24,0 0,486 -490,0 0,-213 -21,0 0,-272 -24,0 0,484 -484,0 0,-489 -30,0 0,490 -201,0 0,25 c 598.4741,0 1201.4064,0 1798,0 l 0,-260 558,0 0,48 24,0 0,-101 93.6562,0 0,313.125 430.3438,0 0,-24.125 -163,0 0,-397 -24,0 0,392 -93,0 0,-392 -24,0 0,392 -91,0 0,-318 -185,0 0,-93 184,0 0,-78 -241,0 0,91 -410,0 0,-96 z"
       id="path3935"
       inkscape:connector-curvature="0"
       sodipodi:nodetypes="ccccccccccccccccccccccccccccccccccccccccccccccc" />
    <path
       style="fill:#0000ff;stroke:none"
       d="m 5768,8527 -21,0 0,-124 -216,0 0,123 -21.8185,0 0,260 51.8185,0 0,117 154,0 0,-117 53,0 0,-80 159,0 0,-101 -159,0 z"
       id="path3940"
       inkscape:connector-curvature="0" />
    <path
       style="fill:#0000ff;stroke:none"
       d="m 3061,2710 0,-61 -233,0 0,-6 -807,0 0,-24 553,0 0,-16 29,0 0,15 182,0 0,-5 67,0 0,10 264,0 0,87 z"
       id="path4052"
       inkscape:connector-curvature="0" />
    <path
       style="fill:#0000ff;stroke:none"
       d="m 7712,7077 0,237 159,0 0,169 25,0 0,-407 -25,0 0,208 -126.664,0 0,-211 -32.336,0 0,83 -397,0 0,26 397,0"
       id="path4092"
       inkscape:connector-curvature="0" />
    <path
       style="fill:#0000ff;stroke:none"
       d="m 6793,470 0,426 26,0 0,-173.8516 557,0 0,47.8516 140,0 0,-64 101,0 0,-42 400,0 0,150 -16,0 0,124 108,0 0,-29 -62,0 0,-441 -41,0 0,140 -389,0 0,-140 -35,0 0,182 -66,0 0,-64 -29,0 0,28 -329,0 0,78 -340.1289,0 0,-222 z"
       id="path4097"
       inkscape:connector-curvature="0"
       sodipodi:nodetypes="ccccccccccccccccccccccccccccccccc" />
    <path
       style="fill:#0000ff;stroke:none"
       d="m 7554,512 -713,0 0,51 27,0 0,-21 686,0 z"
       id="path4099"
       inkscape:connector-curvature="0" />
    <path
       style="fill:#0000ff;stroke:none"
       d="m 7944,915 -82,0 0,24 82,0 z"
       id="path4104"
       inkscape:connector-curvature="0" />
    <path
       style="fill:#0000ff;stroke:none"
       d="m 7825,872 133,0 0,-58 25,0 0,83 -158,0 z"
       id="path4106"
       inkscape:connector-curvature="0" />
    <path
       style="fill:#0000ff;stroke:none"
       d="m 7970,792 0,-38 -284,0 0,68 -73,0 0,-29 48,0 0,-64 339,0 0,63 z"
       id="path4108"
       inkscape:connector-curvature="0"
       sodipodi:nodetypes="ccccccccccc" />
    <path
       style="fill:#0000ff;stroke:none"
       d="m 7953,681 -244,0 0,31 244,0 z"
       id="path4110"
       inkscape:connector-curvature="0" />
    <path
       style="fill:#0000ff;stroke:none"
       d="m 7977,566 -241,0 0,23.30014 241,0 z"
       id="path4112"
       inkscape:connector-curvature="0" />
    <path
       style="fill:#0000ff;stroke:none"
       d="m 7591,888 -93,0 0,25 68,0 0,47 94,0 0,-25 -69,0 z"
       id="path4114"
       inkscape:connector-curvature="0" />
    <path
       style="fill:#0000ff;stroke:none"
       d="m 7757,894 -144,0 0,23 144,0 z"
       id="path4116"
       inkscape:connector-curvature="0" />
    <path
       style="fill:#0000ff;stroke:none"
       d="m 7455,841 0,29 273,0 0,-63 197,0 0,-26 -221,0 0,60 z"
       id="path4118"
       inkscape:connector-curvature="0" />
    <path
       style="fill:#0000ff;stroke:none"
       d="m 7121,872 -120,0 0,25 120,0 z"
       id="path4120"
       inkscape:connector-curvature="0" />
    <path
       style="fill:#0000ff;stroke:none"
       d="m 7253,888 -36,0 0,27 -315,0 0,-70 -24,0 0,94.53121 375,0 z"
       id="path4122"
       inkscape:connector-curvature="0" />
    <path
       style="fill:#0000ff;stroke:none"
       d="m 6983,872 -28,0 0,-108 219,0 0,-24 -243,0 0,156 52,0 z"
       id="path4124"
       inkscape:connector-curvature="0" />
    <path
       style="fill:#0000ff;stroke:none"
       d="m 7407,840 -168,0 -5,-10 -237,0 0,-37 -24,0 0,62 193,0 4,9 237,0 z"
       id="path4129"
       inkscape:connector-curvature="0"
       sodipodi:nodetypes="ccccccccccc" />
    <path
       style="fill:#0000ff;stroke:none"
       d="m 7038,812 0,-29 257,0 0,10 245,0 0,-47 105,0 0,24 -80,0 0,51.87199 -312,0 0,-9.87199 z"
       id="path4131"
       inkscape:connector-curvature="0"
       sodipodi:nodetypes="ccccccccccccc" />
    <path
       style="fill:#0000ff;stroke:none"
       d="m 8549,6344 0,-87 26,0 0,87 z"
       id="path4136"
       inkscape:connector-curvature="0" />
    <path
       style="fill:#0000ff;stroke:none"
       d="m 7967,6345 0,-200 24,0 0,200 z"
       id="path4138"
       inkscape:connector-curvature="0" />
    <path
       style="fill:#0000ff;stroke:none"
       d="m 8052,6318 0,-283 30.8125,0 0,283 z"
       id="path4140"
       inkscape:connector-curvature="0" />
    <path
       style="fill:#0000ff;stroke:none"
       d="m 8052,6017 0,-278 48,0 0,-357 -49,0 0,-279 49,0 0,-357 -48,0 0,-279 48,0 0,-357 -47,0 0,-278 48,0 0,-357 -48,0 0,-278 47,0 0,-357 -48,0 0,-279 48.3907,0 0,-357 -48.3907,0 0,-1136 354,0 0,24 -328.6562,0 0,237 42.6562,0 0,29 -41.305,0 0,822 46.1277,0 0,406 -47.8227,0 0,229 48,0 0,406 -47.8515,0 0,229 47.8515,0 0,406 -48,0 0,230 48,0 0,406 -49,0 0,230 48,0 0,405 -47.929,0 0,230 47.929,0 0,406 -47,0 0,254 z"
       id="path4142"
       inkscape:connector-curvature="0" />
    <path
       style="fill:#0000ff;stroke:none"
       d="m 8425,6615 0,-82 -30,0 0,57 -95,0 0,41 30,0 0,-16 z"
       id="path4144"
       inkscape:connector-curvature="0"
       sodipodi:nodetypes="ccccccccc" />
    <path
       style="fill:#0000ff;stroke:none"
       d="m 8284,8076 0,-210 24,0 0,179 6,0 0,31 z"
       id="path4146"
       inkscape:connector-curvature="0" />
    <path
       style="fill:#0000ff;stroke:none"
       d="m 8394,8003 -68,0 0,-164 -21,0 0,-31 22,0 0,-95 36,0 0,-21 31,0 0,46 -43,0 0,241 43,0 z"
       id="path4148"
       inkscape:connector-curvature="0" />
    <path
       style="fill:#0000ff;stroke:none"
       d="m 8567,8332 -485,0 0,25 485,0 z"
       id="path4150"
       inkscape:connector-curvature="0" />
    <path
       style="fill:#0000ff;stroke:none"
       d="m 7992,8285 -128,0 0,-11 -31,0 0,35 184,0 0,-50 -25,0 z"
       id="path4152"
       inkscape:connector-curvature="0"
       sodipodi:nodetypes="ccccccccc" />
    <path
       style="fill:#0000ff;stroke:none"
       d="m 7974,8236 -57,0 0,-95 -41,0 0,31 16,0 0,95 82,0 z"
       id="path4154"
       inkscape:connector-curvature="0" />
    <path
       style="fill:#0000ff;stroke:none"
       d="m 7565,8240 0,-72 288,0 0,32 23,0 0,35 -48,0 0,-42 -238,0 0,47 z"
       id="path4156"
       inkscape:connector-curvature="0"
       sodipodi:nodetypes="ccccccccccc" />
    <path
       style="fill:#0000ff;stroke:none"
       d="m 7488,8125 -25,0 0,160 -129,0 0,-6 -24,0 0,29.6719 178,0 z"
       id="path4158"
       inkscape:connector-curvature="0" />
    <path
       style="fill:#0000ff;stroke:none"
       d="m 7445,8267 0,-30 -57,0 0,-96 -41.2226,0 0,31 16.4062,0 0,95 z"
       id="path4160"
       inkscape:connector-curvature="0" />
    <path
       style="fill:#0000ff;stroke:none"
       d="m 7300,8235 46,0 0,-31 -22,0 0,-36 -289,0 0,67 25,0 0,-43 240,0 z"
       id="path4162"
       inkscape:connector-curvature="0"
       sodipodi:nodetypes="ccccccccccc" />
    <path
       style="fill:#0000ff;stroke:none"
       d="m 6780,8279 0,30 178,0 0,-183 -24,0 0,159 -130,0 0,-6 z"
       id="path4164"
       inkscape:connector-curvature="0"
       sodipodi:nodetypes="ccccccccc" />
    <path
       style="fill:#0000ff;stroke:none"
       d="m 6916,8237 -59,0 0,-96 -39,0 0,29 16,0 0,96 82,0 z"
       id="path4166"
       inkscape:connector-curvature="0" />
    <path
       style="fill:#0000ff;stroke:none"
       d="m 6771,8235 0,-43 -240,0 0,43 -26,0 0,-67 291,0 0,36 20,0 0,31 z"
       id="path4168"
       inkscape:connector-curvature="0"
       sodipodi:nodetypes="ccccccccccc" />
    <path
       style="fill:#0000ff;stroke:none"
       d="m 6405,8126 0,158 -130,0 0,-5 -24,0 0.1287,30 177.8713,0 -0.1287,-183 z"
       id="path4170"
       inkscape:connector-curvature="0"
       sodipodi:nodetypes="ccccccccc" />
    <path
       style="fill:#0000ff;stroke:none"
       d="m 6387,8266 -35,0 0,-5 -48,0 0,-90 -16,0 0,-29 40,0 0,95 59,0 z"
       id="path4172"
       inkscape:connector-curvature="0" />
    <path
       style="fill:#0000ff;stroke:none"
       d="m 6286,8235 -45,0 0,-43 -145,0 0,42 -119,0 0,-29 93,0 0,-37 196,0 0,36 20,0 z"
       id="path4174"
       inkscape:connector-curvature="0" />
    <path
       style="fill:#0000ff;stroke:none"
       d="m 4314,8400 -159,0 0,41 93,0 1,-7 65,0 z"
       id="path4176"
       inkscape:connector-curvature="0"
       sodipodi:nodetypes="ccccccc" />
    <path
       style="fill:#0000ff;stroke:none"
       d="m 4328,8147 -247,0 0,24 247,0 z"
       id="path4178"
       inkscape:connector-curvature="0" />
    <path
       style="fill:#0000ff;stroke:none"
       d="m 4249,8188 -135,0 0,26 135,0 z"
       id="path4180"
       inkscape:connector-curvature="0" />
    <path
       style="fill:#0000ff;stroke:none"
       d="m 4188,8231 0,24 267,0 0,-10 508,0 0,-79 -24,0 0,55 -346,0 0,-96 -25,0 0,96 -139,0 0,10 z"
       id="path4182"
       inkscape:connector-curvature="0"
       sodipodi:nodetypes="ccccccccccccccc" />
    <path
       style="fill:#0000ff;stroke:none"
       d="m 4901,8172 -290,0 0,31 290,0 z"
       id="path4184"
       inkscape:connector-curvature="0"
       sodipodi:nodetypes="ccccc" />
    <path
       style="fill:#0000ff;stroke:none"
       d="m 4943,8105 -36,0 0,9 -216,0 0,26 252,0 z"
       id="path4186"
       inkscape:connector-curvature="0" />
    <path
       style="fill:#0000ff;stroke:none"
       d="m 4981,8137 0,126 -223,0 0,25 247,0 0,-58 7,0 0,-93 c -10.3333,0 -20.6667,0 -31,0 z"
       id="path4188"
       inkscape:connector-curvature="0"
       sodipodi:nodetypes="ccccccccc" />
  </g>
</svg>
