<?xml version="1.0" encoding="UTF-8" standalone="no"?>
<!-- Created with Inkscape (http://www.inkscape.org/) -->

<svg
   xmlns:dc="http://purl.org/dc/elements/1.1/"
   xmlns:cc="http://creativecommons.org/ns#"
   xmlns:rdf="http://www.w3.org/1999/02/22-rdf-syntax-ns#"
   xmlns:svg="http://www.w3.org/2000/svg"
   xmlns="http://www.w3.org/2000/svg"
   xmlns:xlink="http://www.w3.org/1999/xlink"
   xmlns:sodipodi="http://sodipodi.sourceforge.net/DTD/sodipodi-0.dtd"
   xmlns:inkscape="http://www.inkscape.org/namespaces/inkscape"
   id="svg2"
   version="1.1"
   inkscape:version="0.48.1 r9760"
   width="9515"
   height="9295"
   sodipodi:docname="6522_polys.svg"
   style="display:inline">
  <sodipodi:namedview
     pagecolor="#ffffff"
     bordercolor="#666666"
     borderopacity="1"
     objecttolerance="10000"
     gridtolerance="10000"
     guidetolerance="10000"
     inkscape:pageopacity="0"
     inkscape:pageshadow="2"
     inkscape:window-width="1024"
     inkscape:window-height="768"
     id="namedview4"
     showgrid="true"
     inkscape:zoom="0.073910707"
     inkscape:cx="7473.0399"
     inkscape:cy="5693.9326"
     inkscape:window-x="0"
     inkscape:window-y="0"
     inkscape:window-maximized="1"
     inkscape:current-layer="layer1"
     inkscape:snap-global="true"
     showguides="true"
     inkscape:guide-bbox="true">
    <inkscape:grid
       empopacity="0.25098039"
       empcolor="#ff0000"
       snapvisiblegridlinesonly="false"
       enabled="true"
       visible="true"
       empspacing="5"
       id="grid4651"
       type="xygrid" />
  </sodipodi:namedview>
  <metadata
     id="metadata8">
    <rdf:RDF>
      <cc:Work
         rdf:about="">
        <dc:format>image/svg+xml</dc:format>
        <dc:type
           rdf:resource="http://purl.org/dc/dcmitype/StillImage" />
        <dc:title />
      </cc:Work>
    </rdf:RDF>
  </metadata>
  <defs
     id="defs6">
    <inkscape:perspective
       id="perspective10"
       inkscape:persp3d-origin="0.5 : 0.33333333 : 1"
       inkscape:vp_z="1 : 0.5 : 1"
       inkscape:vp_y="0 : 1000 : 0"
       inkscape:vp_x="0 : 0.5 : 1"
       sodipodi:type="inkscape:persp3d" />
    <inkscape:perspective
       sodipodi:type="inkscape:persp3d"
       inkscape:vp_x="0 : 0.5 : 1"
       inkscape:vp_y="0 : 1000 : 0"
       inkscape:vp_z="1 : 0.5 : 1"
       inkscape:persp3d-origin="0.5 : 0.33333333 : 1"
       id="perspective2862" />
    <inkscape:perspective
       sodipodi:type="inkscape:persp3d"
       inkscape:vp_x="0 : 0.5 : 1"
       inkscape:vp_y="0 : 1000 : 0"
       inkscape:vp_z="1 : 0.5 : 1"
       inkscape:persp3d-origin="0.5 : 0.33333333 : 1"
       id="perspective2862-0" />
    <inkscape:perspective
       sodipodi:type="inkscape:persp3d"
       inkscape:vp_x="0 : 0.5 : 1"
       inkscape:vp_y="0 : 1000 : 0"
       inkscape:vp_z="1 : 0.5 : 1"
       inkscape:persp3d-origin="0.5 : 0.33333333 : 1"
       id="perspective2862-8" />
    <inkscape:perspective
       sodipodi:type="inkscape:persp3d"
       inkscape:vp_x="0 : 0.5 : 1"
       inkscape:vp_y="0 : 1000 : 0"
       inkscape:vp_z="1 : 0.5 : 1"
       inkscape:persp3d-origin="0.5 : 0.33333333 : 1"
       id="perspective2862-1" />
    <inkscape:perspective
       sodipodi:type="inkscape:persp3d"
       inkscape:vp_x="0 : 0.5 : 1"
       inkscape:vp_y="0 : 1000 : 0"
       inkscape:vp_z="1 : 0.5 : 1"
       inkscape:persp3d-origin="0.5 : 0.33333333 : 1"
       id="perspective2862-4" />
    <inkscape:perspective
       sodipodi:type="inkscape:persp3d"
       inkscape:vp_x="0 : 0.5 : 1"
       inkscape:vp_y="0 : 1000 : 0"
       inkscape:vp_z="1 : 0.5 : 1"
       inkscape:persp3d-origin="0.5 : 0.33333333 : 1"
       id="perspective2862-85" />
    <inkscape:perspective
       sodipodi:type="inkscape:persp3d"
       inkscape:vp_x="0 : 0.5 : 1"
       inkscape:vp_y="0 : 1000 : 0"
       inkscape:vp_z="1 : 0.5 : 1"
       inkscape:persp3d-origin="0.5 : 0.33333333 : 1"
       id="perspective2862-13" />
    <inkscape:perspective
       sodipodi:type="inkscape:persp3d"
       inkscape:vp_x="0 : 0.5 : 1"
       inkscape:vp_y="0 : 1000 : 0"
       inkscape:vp_z="1 : 0.5 : 1"
       inkscape:persp3d-origin="0.5 : 0.33333333 : 1"
       id="perspective2862-80" />
    <inkscape:perspective
       sodipodi:type="inkscape:persp3d"
       inkscape:vp_x="0 : 0.5 : 1"
       inkscape:vp_y="0 : 1000 : 0"
       inkscape:vp_z="1 : 0.5 : 1"
       inkscape:persp3d-origin="0.5 : 0.33333333 : 1"
       id="perspective2862-2" />
    <inkscape:perspective
       sodipodi:type="inkscape:persp3d"
       inkscape:vp_x="0 : 0.5 : 1"
       inkscape:vp_y="0 : 1000 : 0"
       inkscape:vp_z="1 : 0.5 : 1"
       inkscape:persp3d-origin="0.5 : 0.33333333 : 1"
       id="perspective2862-3" />
    <inkscape:perspective
       sodipodi:type="inkscape:persp3d"
       inkscape:vp_x="0 : 0.5 : 1"
       inkscape:vp_y="0 : 1000 : 0"
       inkscape:vp_z="1 : 0.5 : 1"
       inkscape:persp3d-origin="0.5 : 0.33333333 : 1"
       id="perspective2862-14" />
    <inkscape:perspective
       sodipodi:type="inkscape:persp3d"
       inkscape:vp_x="0 : 0.5 : 1"
       inkscape:vp_y="0 : 1000 : 0"
       inkscape:vp_z="1 : 0.5 : 1"
       inkscape:persp3d-origin="0.5 : 0.33333333 : 1"
       id="perspective2862-19" />
    <inkscape:perspective
       sodipodi:type="inkscape:persp3d"
       inkscape:vp_x="0 : 0.5 : 1"
       inkscape:vp_y="0 : 1000 : 0"
       inkscape:vp_z="1 : 0.5 : 1"
       inkscape:persp3d-origin="0.5 : 0.33333333 : 1"
       id="perspective2862-6" />
    <inkscape:perspective
       sodipodi:type="inkscape:persp3d"
       inkscape:vp_x="0 : 0.5 : 1"
       inkscape:vp_y="0 : 1000 : 0"
       inkscape:vp_z="1 : 0.5 : 1"
       inkscape:persp3d-origin="0.5 : 0.33333333 : 1"
       id="perspective2862-69" />
    <inkscape:perspective
       sodipodi:type="inkscape:persp3d"
       inkscape:vp_x="0 : 0.5 : 1"
       inkscape:vp_y="0 : 1000 : 0"
       inkscape:vp_z="1 : 0.5 : 1"
       inkscape:persp3d-origin="0.5 : 0.33333333 : 1"
       id="perspective2862-08" />
    <inkscape:perspective
       sodipodi:type="inkscape:persp3d"
       inkscape:vp_x="0 : 0.5 : 1"
       inkscape:vp_y="0 : 1000 : 0"
       inkscape:vp_z="1 : 0.5 : 1"
       inkscape:persp3d-origin="0.5 : 0.33333333 : 1"
       id="perspective3067" />
    <inkscape:perspective
       sodipodi:type="inkscape:persp3d"
       inkscape:vp_x="0 : 0.5 : 1"
       inkscape:vp_y="0 : 1000 : 0"
       inkscape:vp_z="1 : 0.5 : 1"
       inkscape:persp3d-origin="0.5 : 0.33333333 : 1"
       id="perspective3160" />
    <inkscape:perspective
       sodipodi:type="inkscape:persp3d"
       inkscape:vp_x="0 : 0.5 : 1"
       inkscape:vp_y="0 : 1000 : 0"
       inkscape:vp_z="1 : 0.5 : 1"
       inkscape:persp3d-origin="0.5 : 0.33333333 : 1"
       id="perspective3160-1" />
    <inkscape:perspective
       sodipodi:type="inkscape:persp3d"
       inkscape:vp_x="0 : 0.5 : 1"
       inkscape:vp_y="0 : 1000 : 0"
       inkscape:vp_z="1 : 0.5 : 1"
       inkscape:persp3d-origin="0.5 : 0.33333333 : 1"
       id="perspective3160-0" />
    <inkscape:perspective
       sodipodi:type="inkscape:persp3d"
       inkscape:vp_x="0 : 0.5 : 1"
       inkscape:vp_y="0 : 1000 : 0"
       inkscape:vp_z="1 : 0.5 : 1"
       inkscape:persp3d-origin="0.5 : 0.33333333 : 1"
       id="perspective3160-16" />
    <inkscape:perspective
       sodipodi:type="inkscape:persp3d"
       inkscape:vp_x="0 : 0.5 : 1"
       inkscape:vp_y="0 : 1000 : 0"
       inkscape:vp_z="1 : 0.5 : 1"
       inkscape:persp3d-origin="0.5 : 0.33333333 : 1"
       id="perspective3160-8" />
    <inkscape:perspective
       sodipodi:type="inkscape:persp3d"
       inkscape:vp_x="0 : 0.5 : 1"
       inkscape:vp_y="0 : 1000 : 0"
       inkscape:vp_z="1 : 0.5 : 1"
       inkscape:persp3d-origin="0.5 : 0.33333333 : 1"
       id="perspective3160-3" />
    <inkscape:perspective
       sodipodi:type="inkscape:persp3d"
       inkscape:vp_x="0 : 0.5 : 1"
       inkscape:vp_y="0 : 1000 : 0"
       inkscape:vp_z="1 : 0.5 : 1"
       inkscape:persp3d-origin="0.5 : 0.33333333 : 1"
       id="perspective3160-6" />
    <inkscape:perspective
       sodipodi:type="inkscape:persp3d"
       inkscape:vp_x="0 : 0.5 : 1"
       inkscape:vp_y="0 : 1000 : 0"
       inkscape:vp_z="1 : 0.5 : 1"
       inkscape:persp3d-origin="0.5 : 0.33333333 : 1"
       id="perspective3160-2" />
    <inkscape:perspective
       sodipodi:type="inkscape:persp3d"
       inkscape:vp_x="0 : 0.5 : 1"
       inkscape:vp_y="0 : 1000 : 0"
       inkscape:vp_z="1 : 0.5 : 1"
       inkscape:persp3d-origin="0.5 : 0.33333333 : 1"
       id="perspective3160-14" />
    <inkscape:perspective
       sodipodi:type="inkscape:persp3d"
       inkscape:vp_x="0 : 0.5 : 1"
       inkscape:vp_y="0 : 1000 : 0"
       inkscape:vp_z="1 : 0.5 : 1"
       inkscape:persp3d-origin="0.5 : 0.33333333 : 1"
       id="perspective3160-39" />
    <inkscape:perspective
       sodipodi:type="inkscape:persp3d"
       inkscape:vp_x="0 : 0.5 : 1"
       inkscape:vp_y="0 : 1000 : 0"
       inkscape:vp_z="1 : 0.5 : 1"
       inkscape:persp3d-origin="0.5 : 0.33333333 : 1"
       id="perspective3160-66" />
    <inkscape:perspective
       sodipodi:type="inkscape:persp3d"
       inkscape:vp_x="0 : 0.5 : 1"
       inkscape:vp_y="0 : 1000 : 0"
       inkscape:vp_z="1 : 0.5 : 1"
       inkscape:persp3d-origin="0.5 : 0.33333333 : 1"
       id="perspective3160-5" />
    <inkscape:perspective
       sodipodi:type="inkscape:persp3d"
       inkscape:vp_x="0 : 0.5 : 1"
       inkscape:vp_y="0 : 1000 : 0"
       inkscape:vp_z="1 : 0.5 : 1"
       inkscape:persp3d-origin="0.5 : 0.33333333 : 1"
       id="perspective3160-53" />
    <inkscape:perspective
       sodipodi:type="inkscape:persp3d"
       inkscape:vp_x="0 : 0.5 : 1"
       inkscape:vp_y="0 : 1000 : 0"
       inkscape:vp_z="1 : 0.5 : 1"
       inkscape:persp3d-origin="0.5 : 0.33333333 : 1"
       id="perspective3160-87" />
    <inkscape:perspective
       sodipodi:type="inkscape:persp3d"
       inkscape:vp_x="0 : 0.5 : 1"
       inkscape:vp_y="0 : 1000 : 0"
       inkscape:vp_z="1 : 0.5 : 1"
       inkscape:persp3d-origin="0.5 : 0.33333333 : 1"
       id="perspective3160-09" />
    <inkscape:perspective
       sodipodi:type="inkscape:persp3d"
       inkscape:vp_x="0 : 0.5 : 1"
       inkscape:vp_y="0 : 1000 : 0"
       inkscape:vp_z="1 : 0.5 : 1"
       inkscape:persp3d-origin="0.5 : 0.33333333 : 1"
       id="perspective3160-9" />
    <inkscape:perspective
       sodipodi:type="inkscape:persp3d"
       inkscape:vp_x="0 : 0.5 : 1"
       inkscape:vp_y="0 : 1000 : 0"
       inkscape:vp_z="1 : 0.5 : 1"
       inkscape:persp3d-origin="0.5 : 0.33333333 : 1"
       id="perspective3160-19" />
    <inkscape:perspective
       sodipodi:type="inkscape:persp3d"
       inkscape:vp_x="0 : 0.5 : 1"
       inkscape:vp_y="0 : 1000 : 0"
       inkscape:vp_z="1 : 0.5 : 1"
       inkscape:persp3d-origin="0.5 : 0.33333333 : 1"
       id="perspective3160-4" />
    <inkscape:perspective
       sodipodi:type="inkscape:persp3d"
       inkscape:vp_x="0 : 0.5 : 1"
       inkscape:vp_y="0 : 1000 : 0"
       inkscape:vp_z="1 : 0.5 : 1"
       inkscape:persp3d-origin="0.5 : 0.33333333 : 1"
       id="perspective3160-59" />
    <inkscape:perspective
       sodipodi:type="inkscape:persp3d"
       inkscape:vp_x="0 : 0.5 : 1"
       inkscape:vp_y="0 : 1000 : 0"
       inkscape:vp_z="1 : 0.5 : 1"
       inkscape:persp3d-origin="0.5 : 0.33333333 : 1"
       id="perspective3160-38" />
    <inkscape:perspective
       sodipodi:type="inkscape:persp3d"
       inkscape:vp_x="0 : 0.5 : 1"
       inkscape:vp_y="0 : 1000 : 0"
       inkscape:vp_z="1 : 0.5 : 1"
       inkscape:persp3d-origin="0.5 : 0.33333333 : 1"
       id="perspective3160-165" />
    <inkscape:perspective
       sodipodi:type="inkscape:persp3d"
       inkscape:vp_x="0 : 0.5 : 1"
       inkscape:vp_y="0 : 1000 : 0"
       inkscape:vp_z="1 : 0.5 : 1"
       inkscape:persp3d-origin="0.5 : 0.33333333 : 1"
       id="perspective3160-52" />
    <inkscape:perspective
       sodipodi:type="inkscape:persp3d"
       inkscape:vp_x="0 : 0.5 : 1"
       inkscape:vp_y="0 : 1000 : 0"
       inkscape:vp_z="1 : 0.5 : 1"
       inkscape:persp3d-origin="0.5 : 0.33333333 : 1"
       id="perspective3160-02" />
    <inkscape:perspective
       sodipodi:type="inkscape:persp3d"
       inkscape:vp_x="0 : 0.5 : 1"
       inkscape:vp_y="0 : 1000 : 0"
       inkscape:vp_z="1 : 0.5 : 1"
       inkscape:persp3d-origin="0.5 : 0.33333333 : 1"
       id="perspective3160-13" />
    <inkscape:perspective
       sodipodi:type="inkscape:persp3d"
       inkscape:vp_x="0 : 0.5 : 1"
       inkscape:vp_y="0 : 1000 : 0"
       inkscape:vp_z="1 : 0.5 : 1"
       inkscape:persp3d-origin="0.5 : 0.33333333 : 1"
       id="perspective3160-07" />
    <inkscape:perspective
       sodipodi:type="inkscape:persp3d"
       inkscape:vp_x="0 : 0.5 : 1"
       inkscape:vp_y="0 : 1000 : 0"
       inkscape:vp_z="1 : 0.5 : 1"
       inkscape:persp3d-origin="0.5 : 0.33333333 : 1"
       id="perspective3160-81" />
    <inkscape:perspective
       sodipodi:type="inkscape:persp3d"
       inkscape:vp_x="0 : 0.5 : 1"
       inkscape:vp_y="0 : 1000 : 0"
       inkscape:vp_z="1 : 0.5 : 1"
       inkscape:persp3d-origin="0.5 : 0.33333333 : 1"
       id="perspective3160-7" />
    <inkscape:perspective
       sodipodi:type="inkscape:persp3d"
       inkscape:vp_x="0 : 0.5 : 1"
       inkscape:vp_y="0 : 1000 : 0"
       inkscape:vp_z="1 : 0.5 : 1"
       inkscape:persp3d-origin="0.5 : 0.33333333 : 1"
       id="perspective3160-71" />
    <inkscape:perspective
       sodipodi:type="inkscape:persp3d"
       inkscape:vp_x="0 : 0.5 : 1"
       inkscape:vp_y="0 : 1000 : 0"
       inkscape:vp_z="1 : 0.5 : 1"
       inkscape:persp3d-origin="0.5 : 0.33333333 : 1"
       id="perspective3160-31" />
    <inkscape:perspective
       sodipodi:type="inkscape:persp3d"
       inkscape:vp_x="0 : 0.5 : 1"
       inkscape:vp_y="0 : 1000 : 0"
       inkscape:vp_z="1 : 0.5 : 1"
       inkscape:persp3d-origin="0.5 : 0.33333333 : 1"
       id="perspective3160-143" />
    <inkscape:perspective
       sodipodi:type="inkscape:persp3d"
       inkscape:vp_x="0 : 0.5 : 1"
       inkscape:vp_y="0 : 1000 : 0"
       inkscape:vp_z="1 : 0.5 : 1"
       inkscape:persp3d-origin="0.5 : 0.33333333 : 1"
       id="perspective3160-74" />
    <inkscape:perspective
       sodipodi:type="inkscape:persp3d"
       inkscape:vp_x="0 : 0.5 : 1"
       inkscape:vp_y="0 : 1000 : 0"
       inkscape:vp_z="1 : 0.5 : 1"
       inkscape:persp3d-origin="0.5 : 0.33333333 : 1"
       id="perspective3160-00" />
    <inkscape:perspective
       sodipodi:type="inkscape:persp3d"
       inkscape:vp_x="0 : 0.5 : 1"
       inkscape:vp_y="0 : 1000 : 0"
       inkscape:vp_z="1 : 0.5 : 1"
       inkscape:persp3d-origin="0.5 : 0.33333333 : 1"
       id="perspective3160-91" />
    <inkscape:perspective
       sodipodi:type="inkscape:persp3d"
       inkscape:vp_x="0 : 0.5 : 1"
       inkscape:vp_y="0 : 1000 : 0"
       inkscape:vp_z="1 : 0.5 : 1"
       inkscape:persp3d-origin="0.5 : 0.33333333 : 1"
       id="perspective3160-49" />
    <inkscape:perspective
       sodipodi:type="inkscape:persp3d"
       inkscape:vp_x="0 : 0.5 : 1"
       inkscape:vp_y="0 : 1000 : 0"
       inkscape:vp_z="1 : 0.5 : 1"
       inkscape:persp3d-origin="0.5 : 0.33333333 : 1"
       id="perspective3160-67" />
    <inkscape:perspective
       sodipodi:type="inkscape:persp3d"
       inkscape:vp_x="0 : 0.5 : 1"
       inkscape:vp_y="0 : 1000 : 0"
       inkscape:vp_z="1 : 0.5 : 1"
       inkscape:persp3d-origin="0.5 : 0.33333333 : 1"
       id="perspective3160-593" />
    <inkscape:perspective
       sodipodi:type="inkscape:persp3d"
       inkscape:vp_x="0 : 0.5 : 1"
       inkscape:vp_y="0 : 1000 : 0"
       inkscape:vp_z="1 : 0.5 : 1"
       inkscape:persp3d-origin="0.5 : 0.33333333 : 1"
       id="perspective3160-139" />
    <inkscape:perspective
       sodipodi:type="inkscape:persp3d"
       inkscape:vp_x="0 : 0.5 : 1"
       inkscape:vp_y="0 : 1000 : 0"
       inkscape:vp_z="1 : 0.5 : 1"
       inkscape:persp3d-origin="0.5 : 0.33333333 : 1"
       id="perspective3160-69" />
    <inkscape:perspective
       sodipodi:type="inkscape:persp3d"
       inkscape:vp_x="0 : 0.5 : 1"
       inkscape:vp_y="0 : 1000 : 0"
       inkscape:vp_z="1 : 0.5 : 1"
       inkscape:persp3d-origin="0.5 : 0.33333333 : 1"
       id="perspective3160-94" />
  </defs>
  <image
     sodipodi:insensitive="true"
     y="0"
     x="0"
     id="image12"
     height="9295"
     width="9515"
     xlink:href="/home/mcmaster/document/external/pr0ntools/IC/6522/stitch.png"
     sodipodi:absref="/home/mcmaster/document/external/pr0ntools/IC/6522/stitch.png" />
  <g
     style="opacity:0.5;display:inline"
     inkscape:label="metal"
     id="layer1"
     inkscape:groupmode="layer">
    <path
       style="fill:#0000ff;stroke:none;opacity:1"
       d="m 6081,8786 0,-79 -68,0 0,-101 68,0 0,-79 78,0 0,-69 101,0 0,70 80,0 0,78 74,0 0,100 -74,0 0,80 z"
       id="path3164"
       inkscape:connector-curvature="0"
       sodipodi:nodetypes="ccccccccccccccccc" />
    <path
       style="fill:#0000ff;stroke:#000000;stroke-width:1px;stroke-linecap:butt;stroke-linejoin:miter;stroke-opacity:1;opacity:1"
       d="m 2327,596 257,0 0,258 -84,0 0,81 -117,0 0,-80 -58,0 0,-259 z"
       id="path6299"
       inkscape:connector-curvature="0" />
    <path
       style="fill:#0000ff;stroke:#000000;stroke-width:1.01942657999999997px;stroke-linecap:butt;stroke-linejoin:miter;stroke-opacity:1;opacity:1"
       d="m 520,945 0,23.90231 374,0 L 894,945 z"
       id="path6326"
       inkscape:connector-curvature="0" />
    <path
       style="fill:#0000ff;stroke:#000000;stroke-width:1px;stroke-linecap:butt;stroke-linejoin:miter;stroke-opacity:1;opacity:1"
       d="m 1701,916 0,-151 95,0 0,-169 359,0 0,59 -99,0 0,197 -318,0 0,65"
       id="path6328"
       inkscape:connector-curvature="0" />
    <path
       style="fill:#0000ff;stroke:#000000;stroke-width:1px;stroke-linecap:butt;stroke-linejoin:miter;stroke-opacity:1;opacity:1"
       d="m 2736,627 0,89 118,0 0,129 259,0 0,-260 -257,0 0,38"
       id="path6332"
       inkscape:connector-curvature="0" />
    <path
       style="fill:#0000ff;stroke:#000000;stroke-width:1px;stroke-linecap:butt;stroke-linejoin:miter;stroke-opacity:1;opacity:1"
       d="m 519,652 428,0 0,381 -427,0 0,-41 392,0 0,-81 -392,0 0,-25 391,0 0,-91 -391,0 0,-25 391,0 0,-90 -390,0"
       id="path6334"
       inkscape:connector-curvature="0"
       sodipodi:nodetypes="cccccccccccccccc" />
    <path
       style="fill:#0000ff;stroke:#000000;stroke-width:1px;stroke-linecap:butt;stroke-linejoin:miter;stroke-opacity:1;opacity:1"
       d="m 599,1092 0,260 261,0 0,-261 -49,0 0,-59 -62,0 0,59 -44,0 0,-65 -61,0 0,66"
       id="path6336"
       inkscape:connector-curvature="0" />
    <path
       style="fill:#0000ff;stroke:#000000;stroke-width:1px;stroke-linecap:butt;stroke-linejoin:miter;stroke-opacity:1;opacity:1"
       d="m 894,828 -374,0 0,25 375,0"
       id="path6338"
       inkscape:connector-curvature="0" />
    <path
       style="opacity:1;fill:#0000ff;stroke:#000000;stroke-width:1.01942657999999997px;stroke-linecap:butt;stroke-linejoin:miter;stroke-opacity:1;display:inline"
       d="m 519,1940 0,23.9023 374,0 0,-23.9023 z"
       id="path6326-8"
       inkscape:connector-curvature="0" />
    <path
       style="opacity:1;fill:#0000ff;stroke:#000000;stroke-width:1px;stroke-linecap:butt;stroke-linejoin:miter;stroke-opacity:1;display:inline"
       d="m 518,1647 428,0 0,381 -427,0 0,-41 392,0 0,-81 -392,0 0,-25 391,0 0,-91 -391,0 0,-25 391,0 0,-90 -390,0"
       id="path6334-6"
       inkscape:connector-curvature="0"
       sodipodi:nodetypes="cccccccccccccccc" />
    <path
       style="opacity:1;fill:#0000ff;stroke:#000000;stroke-width:1px;stroke-linecap:butt;stroke-linejoin:miter;stroke-opacity:1;display:inline"
       d="m 598,2087 0,260 261,0 0,-261 -49,0 0,-59 -62,0 0,59 -44,0 0,-65 -61,0 0,66"
       id="path6336-0"
       inkscape:connector-curvature="0" />
    <path
       style="opacity:1;fill:#0000ff;stroke:#000000;stroke-width:1px;stroke-linecap:butt;stroke-linejoin:miter;stroke-opacity:1;display:inline"
       d="m 893,1823 -374,0 0,25 375,0"
       id="path6338-8"
       inkscape:connector-curvature="0" />
    <path
       style="opacity:1;fill:#0000ff;stroke:#000000;stroke-width:1.01942657999999997px;stroke-linecap:butt;stroke-linejoin:miter;stroke-opacity:1;display:inline"
       d="m 520,2925 0,23.9023 374,0 0,-23.9023 z"
       id="path6326-4"
       inkscape:connector-curvature="0" />
    <path
       style="opacity:1;fill:#0000ff;stroke:#000000;stroke-width:1px;stroke-linecap:butt;stroke-linejoin:miter;stroke-opacity:1;display:inline"
       d="m 519,2632 428,0 0,381 -427,0 0,-41 392,0 0,-81 -392,0 0,-25 391,0 0,-91 -391,0 0,-25 391,0 0,-90 -390,0"
       id="path6334-5"
       inkscape:connector-curvature="0"
       sodipodi:nodetypes="cccccccccccccccc" />
    <path
       style="opacity:1;fill:#0000ff;stroke:#000000;stroke-width:1px;stroke-linecap:butt;stroke-linejoin:miter;stroke-opacity:1;display:inline"
       d="m 599,3072 0,260 261,0 0,-261 -49,0 0,-59 -62,0 0,59 -44,0 0,-65 -61,0 0,66"
       id="path6336-1"
       inkscape:connector-curvature="0" />
    <path
       style="opacity:1;fill:#0000ff;stroke:#000000;stroke-width:1px;stroke-linecap:butt;stroke-linejoin:miter;stroke-opacity:1;display:inline"
       d="m 894,2808 -374,0 0,25 375,0"
       id="path6338-7"
       inkscape:connector-curvature="0" />
    <path
       style="fill:#0000ff;stroke:#000000;stroke-width:1.01942657999999997px;stroke-linecap:butt;stroke-linejoin:miter;stroke-opacity:1;display:inline;opacity:1"
       d="m 519,3910.0977 0,23.9023 374,0 0,-23.9023 z"
       id="path6326-5"
       inkscape:connector-curvature="0" />
    <path
       style="fill:#0000ff;stroke:#000000;stroke-width:1px;stroke-linecap:butt;stroke-linejoin:miter;stroke-opacity:1;display:inline;opacity:1"
       d="m 518,3617.0977 428,0 0,381 -427,0 0,-41 392,0 0,-81 -392,0 0,-25 391,0 0,-91 -391,0 0,-25 391,0 0,-90 -390,0"
       id="path6334-7"
       inkscape:connector-curvature="0"
       sodipodi:nodetypes="cccccccccccccccc" />
    <path
       style="opacity:1;fill:#0000ff;stroke:#000000;stroke-width:1px;stroke-linecap:butt;stroke-linejoin:miter;stroke-opacity:1;display:inline"
       d="m 599,4058 0,260 261,0 0,-261 -49,0 0,-59 -62,0 0,59 -44,0 0,-65 -61,0 0,66"
       id="path6336-16"
       inkscape:connector-curvature="0" />
    <path
       style="fill:#0000ff;stroke:#000000;stroke-width:1px;stroke-linecap:butt;stroke-linejoin:miter;stroke-opacity:1;display:inline;opacity:1"
       d="m 893,3793.0977 -374,0 0,25 375,0"
       id="path6338-9"
       inkscape:connector-curvature="0" />
    <path
       style="opacity:1;fill:#0000ff;stroke:#000000;stroke-width:1.01942657999999997px;stroke-linecap:butt;stroke-linejoin:miter;stroke-opacity:1;display:inline"
       d="m 518,4895 0,23.9023 374,0 0,-23.9023 z"
       id="path6326-81"
       inkscape:connector-curvature="0" />
    <path
       style="opacity:1;fill:#0000ff;stroke:#000000;stroke-width:1px;stroke-linecap:butt;stroke-linejoin:miter;stroke-opacity:1;display:inline"
       d="m 517,4602 428,0 0,381 -427,0 0,-41 392,0 0,-81 -392,0 0,-25 391,0 0,-91 -391,0 0,-25 391,0 0,-90 -390,0"
       id="path6334-3"
       inkscape:connector-curvature="0"
       sodipodi:nodetypes="cccccccccccccccc" />
    <path
       style="opacity:1;fill:#0000ff;stroke:#000000;stroke-width:1px;stroke-linecap:butt;stroke-linejoin:miter;stroke-opacity:1;display:inline"
       d="m 597,5042 0,260 261,0 0,-261 -49,0 0,-59 -62,0 0,59 -44,0 0,-65 -61,0 0,66"
       id="path6336-3"
       inkscape:connector-curvature="0" />
    <path
       style="opacity:1;fill:#0000ff;stroke:#000000;stroke-width:1px;stroke-linecap:butt;stroke-linejoin:miter;stroke-opacity:1;display:inline"
       d="m 892,4778 -374,0 0,25 375,0"
       id="path6338-3"
       inkscape:connector-curvature="0" />
    <path
       style="opacity:1;fill:#0000ff;stroke:#000000;stroke-width:1.01942657999999997px;stroke-linecap:butt;stroke-linejoin:miter;stroke-opacity:1;display:inline"
       d="m 519,5880 0,23.9023 374,0 0,-23.9023 z"
       id="path6326-7"
       inkscape:connector-curvature="0" />
    <path
       style="opacity:1;fill:#0000ff;stroke:#000000;stroke-width:1px;stroke-linecap:butt;stroke-linejoin:miter;stroke-opacity:1;display:inline"
       d="m 518,5587 428,0 0,381 -427,0 0,-41 392,0 0,-81 -392,0 0,-25 391,0 0,-91 -391,0 0,-25 391,0 0,-90 -390,0"
       id="path6334-9"
       inkscape:connector-curvature="0"
       sodipodi:nodetypes="cccccccccccccccc" />
    <path
       style="opacity:1;fill:#0000ff;stroke:#000000;stroke-width:1px;stroke-linecap:butt;stroke-linejoin:miter;stroke-opacity:1;display:inline"
       d="m 598,6027 0,260 261,0 0,-261 -49,0 0,-59 -62,0 0,59 -44,0 0,-65 -61,0 0,66"
       id="path6336-8"
       inkscape:connector-curvature="0" />
    <path
       style="opacity:1;fill:#0000ff;stroke:#000000;stroke-width:1px;stroke-linecap:butt;stroke-linejoin:miter;stroke-opacity:1;display:inline"
       d="m 893,5763 -374,0 0,25 375,0"
       id="path6338-6"
       inkscape:connector-curvature="0" />
    <path
       style="opacity:1;fill:#0000ff;stroke:#000000;stroke-width:1.01942657999999997px;stroke-linecap:butt;stroke-linejoin:miter;stroke-opacity:1;display:inline"
       d="m 519,6865 0,23.9023 374,0 0,-23.9023 z"
       id="path6326-70"
       inkscape:connector-curvature="0" />
    <path
       style="opacity:1;fill:#0000ff;stroke:#000000;stroke-width:1px;stroke-linecap:butt;stroke-linejoin:miter;stroke-opacity:1;display:inline"
       d="m 518,6572 428,0 0,381 -427,0 0,-41 392,0 0,-81 -392,0 0,-25 391,0 0,-91 -391,0 0,-25 391,0 0,-90 -390,0"
       id="path6334-4"
       inkscape:connector-curvature="0"
       sodipodi:nodetypes="cccccccccccccccc" />
    <path
       style="opacity:1;fill:#0000ff;stroke:#000000;stroke-width:1px;stroke-linecap:butt;stroke-linejoin:miter;stroke-opacity:1;display:inline"
       d="m 598,7012 0,260 261,0 0,-261 -49,0 0,-59 -62,0 0,59 -44,0 0,-65 -61,0 0,66"
       id="path6336-84"
       inkscape:connector-curvature="0" />
    <path
       style="opacity:1;fill:#0000ff;stroke:#000000;stroke-width:1px;stroke-linecap:butt;stroke-linejoin:miter;stroke-opacity:1;display:inline"
       d="m 893,6748 -374,0 0,25 375,0"
       id="path6338-81"
       inkscape:connector-curvature="0" />
    <path
       style="opacity:1;fill:#0000ff;stroke:#000000;stroke-width:1.01942657999999997px;stroke-linecap:butt;stroke-linejoin:miter;stroke-opacity:1;display:inline"
       d="m 518,7850 0,23.9023 374,0 0,-23.9023 z"
       id="path6326-6"
       inkscape:connector-curvature="0" />
    <path
       style="opacity:1;fill:#0000ff;stroke:#000000;stroke-width:1px;stroke-linecap:butt;stroke-linejoin:miter;stroke-opacity:1;display:inline"
       d="m 517,7557 428,0 0,381 -427,0 0,-41 392,0 0,-81 -392,0 0,-25 391,0 0,-91 -391,0 0,-25 391,0 0,-90 -390,0"
       id="path6334-8"
       inkscape:connector-curvature="0"
       sodipodi:nodetypes="cccccccccccccccc" />
    <path
       style="opacity:1;fill:#0000ff;stroke:#000000;stroke-width:1px;stroke-linecap:butt;stroke-linejoin:miter;stroke-opacity:1;display:inline"
       d="m 597,7997 0,260 261,0 0,-261 -49,0 0,-59 -62,0 0,59 -44,0 0,-65 -61,0 0,66"
       id="path6336-5"
       inkscape:connector-curvature="0" />
    <path
       style="opacity:1;fill:#0000ff;stroke:#000000;stroke-width:1px;stroke-linecap:butt;stroke-linejoin:miter;stroke-opacity:1;display:inline"
       d="m 892,7733 -374,0 0,25 375,0"
       id="path6338-2"
       inkscape:connector-curvature="0" />
    <path
       style="fill:#0000ff;stroke:#000000;stroke-width:1px;stroke-linecap:butt;stroke-linejoin:miter;stroke-opacity:1;opacity:1"
       d="m 597,8437 0,348 258,0 0,-259 -189,0 0,-89"
       id="path7215"
       inkscape:connector-curvature="0" />
    <path
       style="fill:#0000ff;stroke:#000000;stroke-width:1px;stroke-linecap:butt;stroke-linejoin:miter;stroke-opacity:1;opacity:1"
       d="m 1384,8735 -34,0 0,24 34,0 0,31 28,0 0,-153 -26,0 0,98 z"
       id="path7227"
       inkscape:connector-curvature="0"
       sodipodi:nodetypes="cccccccccc" />
    <path
       style="fill:#0000ff;stroke:#000000;stroke-width:1px;stroke-linecap:butt;stroke-linejoin:miter;stroke-opacity:1;opacity:1"
       d="m 1428,8635 0,144 26,0 0,-143 -26,0 z"
       id="path7229"
       inkscape:connector-curvature="0" />
    <path
       style="fill:#0000ff;stroke:#000000;stroke-width:1px;stroke-linecap:butt;stroke-linejoin:miter;stroke-opacity:1;opacity:1"
       d="m 1436,8800 -76,0 0,79 77,0 0,-79 z"
       id="path7231"
       inkscape:connector-curvature="0" />
    <path
       style="fill:#0000ff;stroke:#000000;stroke-width:1px;stroke-linecap:butt;stroke-linejoin:miter;stroke-opacity:1;opacity:1"
       d="m 1127,8475 0,29 401,0 0,-41 -26,0 0,16 -340,0 0,-4 z"
       id="path7235"
       inkscape:connector-curvature="0" />
    <path
       style="fill:#0000ff;stroke:none"
       d="m 1055,490 0,853 -42,0 0,97 42,0 0,898 -43,0 0,35 42,0 0,950 -42,0 0,35 42,0 0,950 -42,0 0,35 42,0 0,950 -43,0 0,36 43,0 0,948 -43,0 0,35 42,0 0,949 -41,0 0,37 41,0 0,947 -43,0 0,37 43,0 0,150 -43,0 0,46 43,0 0,307 152,0 0,-24 -112,0 0,-352 43,0 0,-3126 c -0.9134,-1543.5687 0.4166,-3266.3555 2,-4699 l 86,0 0,31 377,0 0,455 36,0 0,43 2133,0 0,6 667,1 1123,0 0,41.9688 2208,0 0,101.0312 -7,0 0,679 -31,0 0,29 16,0 0,48 10,0 0,72 -11,0 0,1273 58,0 0,167 -57,0 0,818 24,0 c 1.0207,142.123 1,279.6072 1,415 l -15,0 0,368 73,0 0,66 -26,0 0,286 -22,0 0,82 43,0 0,233 27,0 0,652 68,0 0,1309 -2166,0 0,194 17,0 0,60 -112,0 0,32 c -211.5865,0 -425.2551,0 -636,0 l 0,-75 -42,0 0,74 -552,0 0,6 -252,0 0,10 -345,0 0,-53 -417,0 0,31 29,0 0,-6 305,0 0,60 -64,0 0,53 -363,0 0,-5 -54,0 0,5 -99,0 0,-5 -51,0 0,5 -362,0 0,-53.1562 -63,0 0,-59.8438 302,0 0,6 32,0 0,-30 -735,0 0,30 30,0 0,21 5,0 0,-27 299,0 0,60 -63,0 0,53 -361,0 0,-5 -52,0 0,5 -101,0 0,-5 -53,0 0,5 -362,0 0,-53.25 -63,0 0,-59.9375 301,0 0,6.1875 32,0 0,-31 -379,0 0,231 0,6 2305.7812,0 0,-117 521.2188,0 0,60 -74,0 0,26 104,0 0,-74 159,0 0,-49 296,0 0,-5 192,0 0,159 -5,0 0,39 0,4 34.9375,0 0,-148 282.0625,0 0,16 35.8438,0 0,-64 134.1562,0 0,-5 176,0 0,116 34,0 0,-42 -11,0 0,-101 106,0 0,-212 127,0 0,-16 2048,0 0,-1468 -41,0 0,-219 -6,0 0,-70 6,0 0,-19 0,-124 42,0 0,-43 -43,0 0,-378 -4,0 0,-70 5,0 0,-143 43,0 0,-41 -43,0 0,-381 -4,0 0,-71 4,0 0,-144 44,0 0,-43 -44,0 0,-374 -5.2812,0 0,-72 5.5937,0 0,-145 42.6875,0 0,-44 -42.375,0 0,-373 -4.625,0 0,-76 4,0 0,-144 44,0 0,-41 -44,0 0,-345 0,-32 -4,0 0,-73 5,0 0,-143.3125 43,0 0,-42.6875 -43,0 0,-374 -5,0 0,-76 4.8438,0 0,-1176 85.1562,0 0,-37 388,0 0,101 42,0 0,558 -41,0 0,1075 -139,0 0,72 25,0 0,-48 113,0 0,612 -139,0 0,72 26,0 0,-48 113,0 0,609 -138,0 0,74 25,0 0,-47 112.875,0 0,609 -137.875,0 0,73 25,0 0,-47 112,0 0,610 -138,0 0,72 26,0 0,-47 112,0 0,609 -138,0 0,74 25,0 0,-48 112,0 0,461 64,0 0,256.0312 -118,0 1,103.9688 53,0 0,169 64,0 0,255 -117.0625,0 0,104.9062 53.0625,0 0,169.9376 63,0 0,287.1562 -116,0 0,30 117,0 0,229 -21,0 0,175 -314,0 0,-48 -35,0 0,48 -80,0 0,101.0938 -230,0 0,-117.0938 -178,0 0,54 -95,0 0,63 -255.9688,0 0,-117.125 -104.0312,0 0,52.8438 -169.2188,0 0,64.4687 -256.0624,0 0,-117.1875 -104.7188,0 0,52.9375 -169,0 0,64.0625 -257,0 0,-117 -103,0 0,35 70,0 10,0 0,113 84,0 0,20 46,0 0,-21 484,0 0,21 46,0 0,-21 482,0 0,21 47,0 0,-21 483,0 0,21 46,0 0,-21 154,0 0,-102 450,0 0,-99 176,0 0,190 120,0 0,-16 174.7188,0 0,-147 -29.7188,0 0,122 -241,0 0,-174 -200,0 0,-430 21,0 0,-49 -20.75,0 0,-481 20.75,0 0,-46 -21,0 -1,-484 21,0 0,-47 -21,0 1,-178 -37,0 0,-230 37,0 0,-405 -37,0 0,-230 37,0 0,-406 -37,0 0,-229 38,0 0,-406 -37,0 0,-229 37,0 0,-406 -37,0 0,-230 36,0 0,-219 1,0 0,-186 -37,0 0,-231 37.3125,0 0,-862 134.6875,0 0,212 40,0 0,-190 27,0 0,-180 -40,0 0,112 -161,0 0,-294 42.3125,0 0,-787 -47.3125,0 0,-63 -704,0 0,-116 -62,0 0,35 27,0 0,81 -90,0 0,22 -135,0 0,-22 -100,0 0,-69 -45,0 0,26 -124,0 0,42 -1504,0 0,-318 -157,0 0,-53 -260,0 0,258 213,0 0,199 -77,0 0,-43 -60,0 0,42 -231,0 0,-41 -34,0 0,41 -750,0 0,-154 -55,0 0,27 -122,0 0,43 -420,0 0,-130 53,0 0,-56 -25,0 0,32 -52,0 0,195 -1862,0 0,-42 -40,0 0,42 -166,0 0,-42 -47,0 0,-424 -376,0 0,-42 z"
       id="path3106"
       inkscape:connector-curvature="0"
       sodipodi:nodetypes="cccccccccccccccccccccccccccccccccccccccccccccccccccccccccccccccccccccccccccccccccccccccccccccccccccccccccccccccccccccccccccccccccccccccccccccccccccccccccccccccccccccccccccccccccccccccccccccccccccccccccccccccccccccccccccccccccccccccccccccccccccccccccccccccccccccccccccccccccccccccccccccccccccccccccccccccccccccccccccccccccccccccccccccccccccccccccccccccccccccccccccccccccccccccccccccccccccccccccccccccccccccccccccccccccccccccccccccccccccccccccccccccccccccccccccccccccccccccccccccccccccccc" />
    <path
       style="fill:#0000ff;stroke:none;opacity:1"
       d="m 1687,8526 0,259 353,0 0,-47 -93,0 0,-212 z"
       id="path3133"
       inkscape:connector-curvature="0" />
    <path
       style="fill:#0000ff;stroke:none;opacity:1"
       d="m 2508,8786 -354,0 0,-47 94,0 0,-212.0298 260,0 z"
       id="path3135"
       inkscape:connector-curvature="0" />
    <path
       style="opacity:1;fill:#0000ff;stroke:none;display:inline"
       d="m 2811,8527 0,259 353,0 0,-47 -93,0 0,-212 z"
       id="path3133-6"
       inkscape:connector-curvature="0" />
    <path
       style="opacity:1;fill:#0000ff;stroke:none;display:inline"
       d="m 3629,8786 -354,0 0,-47 94,0 0,-212.0298 260,0 z"
       id="path3135-8"
       inkscape:connector-curvature="0" />
    <path
       style="fill:#0000ff;stroke:none;opacity:1"
       d="m 4783,8696 0,-63 47,0 0,-37 -121,0 0,-70 -257,0 0,80 -61,0 0,-100 -35,0 0,328 -91,0 0,-275 -25,0 0,275 -93,0 0,-274 -24,0 0,274 -92,0 0,-274 -25,0 0,304 385,0 0,-159 59,0 0,81 260,0 0,-90 z"
       id="path3158"
       inkscape:connector-curvature="0"
       sodipodi:nodetypes="ccccccccccccccccccccccccccccccc" />
    <path
       style="fill:#0000ff;stroke:none;opacity:1"
       d="m 4980,8786 260,0 0,-73 53,0 0,-70 77,0 0,-41 -130,0 0,-76 -260,0 z"
       id="path3160"
       inkscape:connector-curvature="0"
       sodipodi:nodetypes="ccccccccccc" />
    <path
       style="fill:#0000ff;stroke:none;opacity:1"
       d="m 5987,8861 0,-423 418,0 0,-64 23,0 0,485 -29,0 0,-391 -379,0 0,393 z"
       id="path3162"
       inkscape:connector-curvature="0" />
    <path
       style="opacity:1;fill:#0000ff;stroke:none;display:inline"
       d="m 6610,8787 0,-79 -68,0 0,-101 68,0 0,-79 78,0 0,-69 101,0 0,70 80,0 0,78 74,0 0,100 -74,0 0,80 z"
       id="path3164-5"
       inkscape:connector-curvature="0"
       sodipodi:nodetypes="ccccccccccccccccc" />
    <path
       style="opacity:1;fill:#0000ff;stroke:none;display:inline"
       d="m 6516,8862 0,-423 418,0 0,-64 23,0 0,485 -29,0 0,-391 -379,0 0,393 z"
       id="path3162-0"
       inkscape:connector-curvature="0" />
    <path
       style="opacity:1;fill:#0000ff;stroke:none;display:inline"
       d="m 7141,8787 0,-79 -68,0 0,-101 68,0 0,-79 78,0 0,-69 101,0 0,70 80,0 0,78 74,0 0,100 -74,0 0,80 z"
       id="path3164-1"
       inkscape:connector-curvature="0"
       sodipodi:nodetypes="ccccccccccccccccc" />
    <path
       style="opacity:1;fill:#0000ff;stroke:none;display:inline"
       d="m 7047,8862 0,-423 418,0 0,-64 23,0 0,485 -29,0 0,-391 -379,0 0,393 z"
       id="path3162-5"
       inkscape:connector-curvature="0" />
    <path
       style="fill:#0000ff;stroke:none;opacity:1"
       d="m 7669,8786 0,-54 -79,0 0,-152 78,0 0,-53 80,0 0,-70 100,0 0,69 81,0 0,54 67,0 0,154 -69,0 0,52 z"
       id="path3205"
       inkscape:connector-curvature="0" />
    <path
       style="fill:#0000ff;stroke:none;opacity:1"
       d="m 7608,8860 -39,0 0,-422 422,0 0,-64 26,0 0,65 5.5606,0 0,421 -36.5606,0 0,-392 -376,0 0,392 z"
       id="path3207"
       inkscape:connector-curvature="0" />
    <path
       style="fill:#0000ff;stroke:none;opacity:1"
       d="m 8238,8861 -23,0 0,-388 -82,0 0,376 -25,0 0,-411.5956 671,0 0,422.5956 -25,0 0,-387 -80,0 0,387 -36,0 -1,-387 -386.9217,0 0,388 z"
       id="path3209"
       inkscape:connector-curvature="0"
       sodipodi:nodetypes="cccccccccccccccccc" />
    <path
       style="fill:#0000ff;stroke:none;opacity:1"
       d="m 8267,8734 -29,0 0,-154 77,0 0,-53 259,0 0,53 82,0 0,153.7231 -82,0 0,51.2769 -259,0 0,-51 z"
       id="path3211"
       inkscape:connector-curvature="0" />
    <path
       style="fill:#0000ff;stroke:none;opacity:1"
       d="m 8939,8851 0,-43 73,0 0,47 -73,0 z"
       id="path3213"
       inkscape:connector-curvature="0" />
    <path
       style="fill:#0000ff;stroke:none;opacity:1"
       d="m 8828,8665 -10,0 0,-46 73,0 0,46 z"
       id="path3215"
       inkscape:connector-curvature="0" />
    <path
       style="fill:#0000ff;stroke:none"
       d="m 3686,576 0,-49 46,0 0,82 -43,0 0,55 -46.5135,0 0,179.7149 -259.2867,0 0,-259.07762 302.8002,0 z"
       id="path3217"
       inkscape:connector-curvature="0" />
    <path
       style="fill:#0000ff;stroke:none"
       d="m 4179,905 0,-18 35,0 0,52 -375,0 0,-90 25,0 0,65.5708 315,0 z"
       id="path3219"
       inkscape:connector-curvature="0"
       sodipodi:nodetypes="cccccccccc" />
    <path
       style="fill:#0000ff;stroke:none"
       d="m 3964,872 117,0 0,24 -125,0 0,-24 z"
       id="path3221"
       inkscape:connector-curvature="0" />
    <path
       style="fill:#0000ff;stroke:none"
       d="m 3893,888 0,-149 242,0 0,24.8899 -218,0 0,109.1101 22,0 0,23 -46,0 z"
       id="path3223"
       inkscape:connector-curvature="0" />
    <path
       style="fill:#0000ff;stroke:none"
       d="m 3935,851 0,-64 25,0 0,42 408,0 0,36 -41,0 0,-12 -392,0 z"
       id="path3225"
       inkscape:connector-curvature="0" />
    <path
       style="fill:#0000ff;stroke:none"
       d="m 3999,808 0,-26 289,0 0,30 -289,0 z"
       id="path3227"
       inkscape:connector-curvature="0" />
    <path
       style="fill:#0000ff;stroke:none"
       d="m 4522,931 0,-331 -184,0 0,-24 184,0 0,-59 257.933,0 0,121 59.495,0 0,-53 257.572,0 0,259 -257,0 0,-53 -60,0 0,148 -25.3184,0 0,-398 -91.6816,0 0,393 -24.2734,0 0,-393 -91.7492,0 0,393 -24.9774,0 z"
       id="path3229"
       inkscape:connector-curvature="0" />
    <path
       style="fill:#0000ff;stroke:none"
       d="m 5238,1020 0,-22 153,0 0,-42 162,0 0,66 -30,0 0,-41 -109,0 0,43.2514 -176,0 z"
       id="path3231"
       inkscape:connector-curvature="0" />
    <path
       style="fill:#0000ff;stroke:none"
       d="m 4439,1021 0,-22 470,0 0,-42 323.1252,0 0,-79 23.0207,0 0,103.0193 -323.1459,0 0,42.915 -493,0 z"
       id="path3233"
       inkscape:connector-curvature="0" />
    <path
       style="fill:#0000ff;stroke:none"
       d="m 5883,923 0,-19 338,0 0,-402 25,0 0,426 -363,0 z"
       id="path3235"
       inkscape:connector-curvature="0" />
    <path
       style="fill:#0000ff;stroke:none"
       d="m 5928,843 -40,0 0,-257 258,0 0,52 87,0 0,163 -88,0 0,43 -52,0 0,73 -152,0 0,-74 z"
       id="path3237"
       inkscape:connector-curvature="0" />
    <path
       style="fill:#0000ff;stroke:none"
       d="m 6418,837 0,-251 259.2929,0 0,52 55.7071,0 0,152 -58,0 0,55 -53,0 0,67 -125,0 0,-68 -79,0 z"
       id="path3260"
       inkscape:connector-curvature="0" />
    <path
       style="fill:#0000ff;stroke:none"
       d="m 6397,924 0,-26 334,0 0,-392 29,0 0,422.00981 -363,0 z"
       id="path3262"
       inkscape:connector-curvature="0" />
  </g>
</svg>
